<svg width="216" height="475" viewBox="0 0 216 475" fill="none" xmlns="http://www.w3.org/2000/svg">
<circle cx="211.479" cy="471.398" r="3.54434" transform="rotate(-180 211.479 471.398)" fill="#034EA9"/>
<circle cx="159.496" cy="471.398" r="3.54434" transform="rotate(-180 159.496 471.398)" fill="#034EA9"/>
<circle cx="107.512" cy="471.398" r="3.54434" transform="rotate(-180 107.512 471.398)" fill="#034EA9"/>
<circle cx="55.5282" cy="471.398" r="3.54434" transform="rotate(-180 55.5282 471.398)" fill="#034EA9"/>
<circle cx="3.54452" cy="471.398" r="3.54434" transform="rotate(-180 3.54452 471.398)" fill="#034EA9"/>
<circle cx="211.479" cy="419.414" r="3.54434" transform="rotate(-180 211.479 419.414)" fill="#034EA9"/>
<circle cx="159.496" cy="419.414" r="3.54434" transform="rotate(-180 159.496 419.414)" fill="#034EA9"/>
<circle cx="107.512" cy="419.414" r="3.54434" transform="rotate(-180 107.512 419.414)" fill="#034EA9"/>
<circle cx="55.5282" cy="419.414" r="3.54434" transform="rotate(-180 55.5282 419.414)" fill="#034EA9"/>
<circle cx="3.54452" cy="419.414" r="3.54434" transform="rotate(-180 3.54452 419.414)" fill="#034EA9"/>
<circle cx="211.479" cy="367.431" r="3.54434" transform="rotate(-180 211.479 367.431)" fill="#034EA9"/>
<circle cx="159.496" cy="367.431" r="3.54434" transform="rotate(-180 159.496 367.431)" fill="#034EA9"/>
<circle cx="107.512" cy="367.431" r="3.54434" transform="rotate(-180 107.512 367.431)" fill="#034EA9"/>
<circle cx="55.5282" cy="367.431" r="3.54434" transform="rotate(-180 55.5282 367.431)" fill="#034EA9"/>
<circle cx="3.54452" cy="367.431" r="3.54434" transform="rotate(-180 3.54452 367.431)" fill="#034EA9"/>
<circle cx="211.479" cy="315.447" r="3.54434" transform="rotate(-180 211.479 315.447)" fill="#034EA9"/>
<circle cx="159.496" cy="315.447" r="3.54434" transform="rotate(-180 159.496 315.447)" fill="#034EA9"/>
<circle cx="107.512" cy="315.447" r="3.54434" transform="rotate(-180 107.512 315.447)" fill="#034EA9"/>
<circle cx="55.5282" cy="315.447" r="3.54434" transform="rotate(-180 55.5282 315.447)" fill="#034EA9"/>
<circle cx="3.54452" cy="315.447" r="3.54434" transform="rotate(-180 3.54452 315.447)" fill="#034EA9"/>
<circle cx="211.479" cy="263.463" r="3.54434" transform="rotate(-180 211.479 263.463)" fill="#034EA9"/>
<circle cx="159.496" cy="263.463" r="3.54434" transform="rotate(-180 159.496 263.463)" fill="#034EA9"/>
<circle cx="107.512" cy="263.463" r="3.54434" transform="rotate(-180 107.512 263.463)" fill="#034EA9"/>
<circle cx="55.5282" cy="263.463" r="3.54434" transform="rotate(-180 55.5282 263.463)" fill="#034EA9"/>
<circle cx="3.54452" cy="263.463" r="3.54434" transform="rotate(-180 3.54452 263.463)" fill="#034EA9"/>
<circle cx="211.479" cy="211.479" r="3.54434" transform="rotate(-180 211.479 211.479)" fill="#034EA9"/>
<circle cx="159.496" cy="211.479" r="3.54434" transform="rotate(-180 159.496 211.479)" fill="#034EA9"/>
<circle cx="107.512" cy="211.479" r="3.54434" transform="rotate(-180 107.512 211.479)" fill="#034EA9"/>
<circle cx="55.5282" cy="211.479" r="3.54434" transform="rotate(-180 55.5282 211.479)" fill="#034EA9"/>
<circle cx="3.54452" cy="211.479" r="3.54434" transform="rotate(-180 3.54452 211.479)" fill="#034EA9"/>
<circle cx="211.479" cy="159.496" r="3.54434" transform="rotate(-180 211.479 159.496)" fill="#034EA9"/>
<circle cx="159.496" cy="159.496" r="3.54434" transform="rotate(-180 159.496 159.496)" fill="#034EA9"/>
<circle cx="107.512" cy="159.496" r="3.54434" transform="rotate(-180 107.512 159.496)" fill="#034EA9"/>
<circle cx="55.5282" cy="159.496" r="3.54434" transform="rotate(-180 55.5282 159.496)" fill="#034EA9"/>
<circle cx="3.54452" cy="159.496" r="3.54434" transform="rotate(-180 3.54452 159.496)" fill="#034EA9"/>
<circle cx="211.479" cy="107.512" r="3.54434" transform="rotate(-180 211.479 107.512)" fill="#034EA9"/>
<circle cx="159.496" cy="107.512" r="3.54434" transform="rotate(-180 159.496 107.512)" fill="#034EA9"/>
<circle cx="107.512" cy="107.512" r="3.54434" transform="rotate(-180 107.512 107.512)" fill="#034EA9"/>
<circle cx="55.5282" cy="107.512" r="3.54434" transform="rotate(-180 55.5282 107.512)" fill="#034EA9"/>
<circle cx="3.54452" cy="107.512" r="3.54434" transform="rotate(-180 3.54452 107.512)" fill="#034EA9"/>
<circle cx="211.479" cy="55.5279" r="3.54434" transform="rotate(-180 211.479 55.5279)" fill="#034EA9"/>
<circle cx="159.496" cy="55.5279" r="3.54434" transform="rotate(-180 159.496 55.5279)" fill="#034EA9"/>
<circle cx="107.512" cy="55.5279" r="3.54434" transform="rotate(-180 107.512 55.5279)" fill="#034EA9"/>
<circle cx="55.5282" cy="55.5279" r="3.54434" transform="rotate(-180 55.5282 55.5279)" fill="#034EA9"/>
<circle cx="3.54452" cy="55.5282" r="3.54434" transform="rotate(-180 3.54452 55.5282)" fill="#034EA9"/>
<circle cx="211.479" cy="3.54428" r="3.54434" transform="rotate(-180 211.479 3.54428)" fill="#034EA9"/>
<circle cx="159.496" cy="3.54428" r="3.54434" transform="rotate(-180 159.496 3.54428)" fill="#034EA9"/>
<circle cx="107.512" cy="3.54428" r="3.54434" transform="rotate(-180 107.512 3.54428)" fill="#034EA9"/>
<circle cx="55.5282" cy="3.54428" r="3.54434" transform="rotate(-180 55.5282 3.54428)" fill="#034EA9"/>
<circle cx="3.54452" cy="3.54428" r="3.54434" transform="rotate(-180 3.54452 3.54428)" fill="#034EA9"/>
</svg>
