<svg width="472" height="182" viewBox="0 0 472 182" fill="none" xmlns="http://www.w3.org/2000/svg">
<g clip-path="url(#clip0_46_1048)">
<circle cx="3.52358" cy="158.561" r="3.52358" transform="rotate(-90 3.52358 158.561)" fill="#034EA9"/>
<circle cx="3.52358" cy="106.882" r="3.52358" transform="rotate(-90 3.52358 106.882)" fill="#034EA9"/>
<circle cx="3.52358" cy="55.2027" r="3.52358" transform="rotate(-90 3.52358 55.2027)" fill="#034EA9"/>
<circle cx="3.52358" cy="3.52354" r="3.52358" transform="rotate(-90 3.52358 3.52354)" fill="#034EA9"/>
<circle cx="55.2028" cy="158.561" r="3.52358" transform="rotate(-90 55.2028 158.561)" fill="#034EA9"/>
<circle cx="55.2028" cy="106.882" r="3.52358" transform="rotate(-90 55.2028 106.882)" fill="#034EA9"/>
<circle cx="55.2028" cy="55.2027" r="3.52358" transform="rotate(-90 55.2028 55.2027)" fill="#034EA9"/>
<circle cx="55.2028" cy="3.52354" r="3.52358" transform="rotate(-90 55.2028 3.52354)" fill="#034EA9"/>
<circle cx="106.882" cy="158.561" r="3.52358" transform="rotate(-90 106.882 158.561)" fill="#034EA9"/>
<circle cx="106.882" cy="106.882" r="3.52358" transform="rotate(-90 106.882 106.882)" fill="#034EA9"/>
<circle cx="106.882" cy="55.2027" r="3.52358" transform="rotate(-90 106.882 55.2027)" fill="#034EA9"/>
<circle cx="106.882" cy="3.52354" r="3.52358" transform="rotate(-90 106.882 3.52354)" fill="#034EA9"/>
<circle cx="158.561" cy="158.561" r="3.52358" transform="rotate(-90 158.561 158.561)" fill="#034EA9"/>
<circle cx="158.561" cy="106.882" r="3.52358" transform="rotate(-90 158.561 106.882)" fill="#034EA9"/>
<circle cx="158.561" cy="55.2027" r="3.52358" transform="rotate(-90 158.561 55.2027)" fill="#034EA9"/>
<circle cx="158.561" cy="3.52354" r="3.52358" transform="rotate(-90 158.561 3.52354)" fill="#034EA9"/>
<circle cx="210.24" cy="158.561" r="3.52358" transform="rotate(-90 210.24 158.561)" fill="#034EA9"/>
<circle cx="210.24" cy="106.882" r="3.52358" transform="rotate(-90 210.24 106.882)" fill="#034EA9"/>
<circle cx="210.24" cy="55.2027" r="3.52358" transform="rotate(-90 210.24 55.2027)" fill="#034EA9"/>
<circle cx="210.24" cy="3.52354" r="3.52358" transform="rotate(-90 210.24 3.52354)" fill="#034EA9"/>
<circle cx="261.919" cy="158.561" r="3.52358" transform="rotate(-90 261.919 158.561)" fill="#034EA9"/>
<circle cx="261.919" cy="106.882" r="3.52358" transform="rotate(-90 261.919 106.882)" fill="#034EA9"/>
<circle cx="261.919" cy="55.2027" r="3.52358" transform="rotate(-90 261.919 55.2027)" fill="#034EA9"/>
<circle cx="261.919" cy="3.52354" r="3.52358" transform="rotate(-90 261.919 3.52354)" fill="#034EA9"/>
<circle cx="313.599" cy="158.561" r="3.52358" transform="rotate(-90 313.599 158.561)" fill="#034EA9"/>
<circle cx="313.599" cy="106.882" r="3.52358" transform="rotate(-90 313.599 106.882)" fill="#034EA9"/>
<circle cx="313.599" cy="55.2027" r="3.52358" transform="rotate(-90 313.599 55.2027)" fill="#034EA9"/>
<circle cx="313.599" cy="3.52354" r="3.52358" transform="rotate(-90 313.599 3.52354)" fill="#034EA9"/>
<circle cx="365.278" cy="158.561" r="3.52358" transform="rotate(-90 365.278 158.561)" fill="#034EA9"/>
<circle cx="365.278" cy="106.882" r="3.52358" transform="rotate(-90 365.278 106.882)" fill="#034EA9"/>
<circle cx="365.278" cy="55.2027" r="3.52358" transform="rotate(-90 365.278 55.2027)" fill="#034EA9"/>
<circle cx="365.278" cy="3.52354" r="3.52358" transform="rotate(-90 365.278 3.52354)" fill="#034EA9"/>
<circle cx="416.957" cy="158.561" r="3.52358" transform="rotate(-90 416.957 158.561)" fill="#034EA9"/>
<circle cx="416.957" cy="106.882" r="3.52358" transform="rotate(-90 416.957 106.882)" fill="#034EA9"/>
<circle cx="416.957" cy="55.2027" r="3.52358" transform="rotate(-90 416.957 55.2027)" fill="#034EA9"/>
<circle cx="416.957" cy="3.52354" r="3.52358" transform="rotate(-90 416.957 3.52354)" fill="#034EA9"/>
<circle cx="468.636" cy="158.561" r="3.52358" transform="rotate(-90 468.636 158.561)" fill="#034EA9"/>
<circle cx="468.636" cy="106.882" r="3.52358" transform="rotate(-90 468.636 106.882)" fill="#034EA9"/>
<circle cx="468.636" cy="55.2027" r="3.52358" transform="rotate(-90 468.636 55.2027)" fill="#034EA9"/>
<circle cx="468.636" cy="3.52354" r="3.52358" transform="rotate(-90 468.636 3.52354)" fill="#034EA9"/>
</g>
<defs>
<clipPath id="clip0_46_1048">
<rect width="472" height="182" fill="white"/>
</clipPath>
</defs>
</svg>
