<svg width="181" height="401" viewBox="0 0 181 401" fill="none" xmlns="http://www.w3.org/2000/svg">
<circle cx="178.016" cy="397.379" r="2.98352" transform="rotate(-180 178.016 397.379)" fill="#6EADFB"/>
<circle cx="134.258" cy="397.379" r="2.98352" transform="rotate(-180 134.258 397.379)" fill="#6EADFB"/>
<circle cx="90.4999" cy="397.379" r="2.98352" transform="rotate(-180 90.4999 397.379)" fill="#6EADFB"/>
<circle cx="46.7418" cy="397.379" r="2.98352" transform="rotate(-180 46.7418 397.379)" fill="#6EADFB"/>
<circle cx="2.98353" cy="397.379" r="2.98352" transform="rotate(-180 2.98353 397.379)" fill="#6EADFB"/>
<circle cx="178.016" cy="353.621" r="2.98352" transform="rotate(-180 178.016 353.621)" fill="#6EADFB"/>
<circle cx="134.258" cy="353.621" r="2.98352" transform="rotate(-180 134.258 353.621)" fill="#6EADFB"/>
<circle cx="90.4999" cy="353.621" r="2.98352" transform="rotate(-180 90.4999 353.621)" fill="#6EADFB"/>
<circle cx="46.7418" cy="353.621" r="2.98352" transform="rotate(-180 46.7418 353.621)" fill="#6EADFB"/>
<circle cx="2.98353" cy="353.621" r="2.98352" transform="rotate(-180 2.98353 353.621)" fill="#6EADFB"/>
<circle cx="178.016" cy="309.863" r="2.98352" transform="rotate(-180 178.016 309.863)" fill="#6EADFB"/>
<circle cx="134.258" cy="309.863" r="2.98352" transform="rotate(-180 134.258 309.863)" fill="#6EADFB"/>
<circle cx="90.5001" cy="309.863" r="2.98352" transform="rotate(-180 90.5001 309.863)" fill="#6EADFB"/>
<circle cx="46.7418" cy="309.863" r="2.98352" transform="rotate(-180 46.7418 309.863)" fill="#6EADFB"/>
<circle cx="2.98353" cy="309.863" r="2.98352" transform="rotate(-180 2.98353 309.863)" fill="#6EADFB"/>
<circle cx="178.016" cy="266.104" r="2.98352" transform="rotate(-180 178.016 266.104)" fill="#6EADFB"/>
<circle cx="134.258" cy="266.104" r="2.98352" transform="rotate(-180 134.258 266.104)" fill="#6EADFB"/>
<circle cx="90.5001" cy="266.104" r="2.98352" transform="rotate(-180 90.5001 266.104)" fill="#6EADFB"/>
<circle cx="46.7418" cy="266.104" r="2.98352" transform="rotate(-180 46.7418 266.104)" fill="#6EADFB"/>
<circle cx="2.98353" cy="266.104" r="2.98352" transform="rotate(-180 2.98353 266.104)" fill="#6EADFB"/>
<circle cx="178.016" cy="222.346" r="2.98352" transform="rotate(-180 178.016 222.346)" fill="#6EADFB"/>
<circle cx="134.258" cy="222.346" r="2.98352" transform="rotate(-180 134.258 222.346)" fill="#6EADFB"/>
<circle cx="90.5001" cy="222.346" r="2.98352" transform="rotate(-180 90.5001 222.346)" fill="#6EADFB"/>
<circle cx="46.7418" cy="222.346" r="2.98352" transform="rotate(-180 46.7418 222.346)" fill="#6EADFB"/>
<circle cx="2.98353" cy="222.346" r="2.98352" transform="rotate(-180 2.98353 222.346)" fill="#6EADFB"/>
<circle cx="178.016" cy="178.588" r="2.98352" transform="rotate(-180 178.016 178.588)" fill="#6EADFB"/>
<circle cx="134.258" cy="178.588" r="2.98352" transform="rotate(-180 134.258 178.588)" fill="#6EADFB"/>
<circle cx="90.5001" cy="178.588" r="2.98352" transform="rotate(-180 90.5001 178.588)" fill="#6EADFB"/>
<circle cx="46.7418" cy="178.588" r="2.98352" transform="rotate(-180 46.7418 178.588)" fill="#6EADFB"/>
<circle cx="2.98353" cy="178.588" r="2.98352" transform="rotate(-180 2.98353 178.588)" fill="#6EADFB"/>
<circle cx="178.016" cy="134.83" r="2.98352" transform="rotate(-180 178.016 134.83)" fill="#6EADFB"/>
<circle cx="134.258" cy="134.83" r="2.98352" transform="rotate(-180 134.258 134.83)" fill="#6EADFB"/>
<circle cx="90.5001" cy="134.83" r="2.98352" transform="rotate(-180 90.5001 134.83)" fill="#6EADFB"/>
<circle cx="46.7418" cy="134.83" r="2.98352" transform="rotate(-180 46.7418 134.83)" fill="#6EADFB"/>
<circle cx="2.98353" cy="134.83" r="2.98352" transform="rotate(-180 2.98353 134.83)" fill="#6EADFB"/>
<circle cx="178.017" cy="91.0715" r="2.98352" transform="rotate(-180 178.017 91.0715)" fill="#6EADFB"/>
<circle cx="134.258" cy="91.0715" r="2.98352" transform="rotate(-180 134.258 91.0715)" fill="#6EADFB"/>
<circle cx="90.5001" cy="91.0715" r="2.98352" transform="rotate(-180 90.5001 91.0715)" fill="#6EADFB"/>
<circle cx="46.7418" cy="91.0715" r="2.98352" transform="rotate(-180 46.7418 91.0715)" fill="#6EADFB"/>
<circle cx="2.98365" cy="91.0715" r="2.98352" transform="rotate(-180 2.98365 91.0715)" fill="#6EADFB"/>
<circle cx="178.017" cy="47.3133" r="2.98352" transform="rotate(-180 178.017 47.3133)" fill="#6EADFB"/>
<circle cx="134.258" cy="47.3133" r="2.98352" transform="rotate(-180 134.258 47.3133)" fill="#6EADFB"/>
<circle cx="90.5001" cy="47.3133" r="2.98352" transform="rotate(-180 90.5001 47.3133)" fill="#6EADFB"/>
<circle cx="46.7418" cy="47.3133" r="2.98352" transform="rotate(-180 46.7418 47.3133)" fill="#6EADFB"/>
<circle cx="2.98365" cy="47.3133" r="2.98352" transform="rotate(-180 2.98365 47.3133)" fill="#6EADFB"/>
<circle cx="178.017" cy="3.55503" r="2.98352" transform="rotate(-180 178.017 3.55503)" fill="#6EADFB"/>
<circle cx="134.258" cy="3.55502" r="2.98352" transform="rotate(-180 134.258 3.55502)" fill="#6EADFB"/>
<circle cx="90.5001" cy="3.55502" r="2.98352" transform="rotate(-180 90.5001 3.55502)" fill="#6EADFB"/>
<circle cx="46.7418" cy="3.55501" r="2.98352" transform="rotate(-180 46.7418 3.55501)" fill="#6EADFB"/>
<circle cx="2.98365" cy="3.55504" r="2.98352" transform="rotate(-180 2.98365 3.55504)" fill="#6EADFB"/>
</svg>
