<svg width="181" height="400" viewBox="0 0 181 400" fill="none" xmlns="http://www.w3.org/2000/svg">
<circle cx="178.016" cy="396.807" r="2.98352" transform="rotate(-180 178.016 396.807)" fill="#F1952B"/>
<circle cx="134.258" cy="396.807" r="2.98352" transform="rotate(-180 134.258 396.807)" fill="#F1952B"/>
<circle cx="90.4999" cy="396.807" r="2.98352" transform="rotate(-180 90.4999 396.807)" fill="#F1952B"/>
<circle cx="46.7418" cy="396.807" r="2.98352" transform="rotate(-180 46.7418 396.807)" fill="#F1952B"/>
<circle cx="2.98353" cy="396.807" r="2.98352" transform="rotate(-180 2.98353 396.807)" fill="#F1952B"/>
<circle cx="178.016" cy="353.049" r="2.98352" transform="rotate(-180 178.016 353.049)" fill="#F1952B"/>
<circle cx="134.258" cy="353.049" r="2.98352" transform="rotate(-180 134.258 353.049)" fill="#F1952B"/>
<circle cx="90.4999" cy="353.049" r="2.98352" transform="rotate(-180 90.4999 353.049)" fill="#F1952B"/>
<circle cx="46.7418" cy="353.049" r="2.98352" transform="rotate(-180 46.7418 353.049)" fill="#F1952B"/>
<circle cx="2.98353" cy="353.049" r="2.98352" transform="rotate(-180 2.98353 353.049)" fill="#F1952B"/>
<circle cx="178.016" cy="309.291" r="2.98352" transform="rotate(-180 178.016 309.291)" fill="#F1952B"/>
<circle cx="134.258" cy="309.291" r="2.98352" transform="rotate(-180 134.258 309.291)" fill="#F1952B"/>
<circle cx="90.5001" cy="309.291" r="2.98352" transform="rotate(-180 90.5001 309.291)" fill="#F1952B"/>
<circle cx="46.7418" cy="309.291" r="2.98352" transform="rotate(-180 46.7418 309.291)" fill="#F1952B"/>
<circle cx="2.98353" cy="309.291" r="2.98352" transform="rotate(-180 2.98353 309.291)" fill="#F1952B"/>
<circle cx="178.016" cy="265.533" r="2.98352" transform="rotate(-180 178.016 265.533)" fill="#F1952B"/>
<circle cx="134.258" cy="265.533" r="2.98352" transform="rotate(-180 134.258 265.533)" fill="#F1952B"/>
<circle cx="90.5001" cy="265.533" r="2.98352" transform="rotate(-180 90.5001 265.533)" fill="#F1952B"/>
<circle cx="46.7418" cy="265.533" r="2.98352" transform="rotate(-180 46.7418 265.533)" fill="#F1952B"/>
<circle cx="2.98353" cy="265.533" r="2.98352" transform="rotate(-180 2.98353 265.533)" fill="#F1952B"/>
<circle cx="178.016" cy="221.775" r="2.98352" transform="rotate(-180 178.016 221.775)" fill="#F1952B"/>
<circle cx="134.258" cy="221.775" r="2.98352" transform="rotate(-180 134.258 221.775)" fill="#F1952B"/>
<circle cx="90.5001" cy="221.775" r="2.98352" transform="rotate(-180 90.5001 221.775)" fill="#F1952B"/>
<circle cx="46.7418" cy="221.775" r="2.98352" transform="rotate(-180 46.7418 221.775)" fill="#F1952B"/>
<circle cx="2.98353" cy="221.775" r="2.98352" transform="rotate(-180 2.98353 221.775)" fill="#F1952B"/>
<circle cx="178.016" cy="178.016" r="2.98352" transform="rotate(-180 178.016 178.016)" fill="#F1952B"/>
<circle cx="134.258" cy="178.016" r="2.98352" transform="rotate(-180 134.258 178.016)" fill="#F1952B"/>
<circle cx="90.5001" cy="178.016" r="2.98352" transform="rotate(-180 90.5001 178.016)" fill="#F1952B"/>
<circle cx="46.7418" cy="178.016" r="2.98352" transform="rotate(-180 46.7418 178.016)" fill="#F1952B"/>
<circle cx="2.98353" cy="178.016" r="2.98352" transform="rotate(-180 2.98353 178.016)" fill="#F1952B"/>
<circle cx="178.016" cy="134.258" r="2.98352" transform="rotate(-180 178.016 134.258)" fill="#F1952B"/>
<circle cx="134.258" cy="134.258" r="2.98352" transform="rotate(-180 134.258 134.258)" fill="#F1952B"/>
<circle cx="90.5001" cy="134.258" r="2.98352" transform="rotate(-180 90.5001 134.258)" fill="#F1952B"/>
<circle cx="46.7418" cy="134.258" r="2.98352" transform="rotate(-180 46.7418 134.258)" fill="#F1952B"/>
<circle cx="2.98353" cy="134.258" r="2.98352" transform="rotate(-180 2.98353 134.258)" fill="#F1952B"/>
<circle cx="178.016" cy="90.4999" r="2.98352" transform="rotate(-180 178.016 90.4999)" fill="#F1952B"/>
<circle cx="134.258" cy="90.4999" r="2.98352" transform="rotate(-180 134.258 90.4999)" fill="#F1952B"/>
<circle cx="90.5001" cy="90.4999" r="2.98352" transform="rotate(-180 90.5001 90.4999)" fill="#F1952B"/>
<circle cx="46.7418" cy="90.4999" r="2.98352" transform="rotate(-180 46.7418 90.4999)" fill="#F1952B"/>
<circle cx="2.98353" cy="90.4998" r="2.98352" transform="rotate(-180 2.98353 90.4998)" fill="#F1952B"/>
<circle cx="178.016" cy="46.7416" r="2.98352" transform="rotate(-180 178.016 46.7416)" fill="#F1952B"/>
<circle cx="134.258" cy="46.7416" r="2.98352" transform="rotate(-180 134.258 46.7416)" fill="#F1952B"/>
<circle cx="90.5001" cy="46.7416" r="2.98352" transform="rotate(-180 90.5001 46.7416)" fill="#F1952B"/>
<circle cx="46.7418" cy="46.7416" r="2.98352" transform="rotate(-180 46.7418 46.7416)" fill="#F1952B"/>
<circle cx="2.98353" cy="46.7416" r="2.98352" transform="rotate(-180 2.98353 46.7416)" fill="#F1952B"/>
<circle cx="178.016" cy="2.98337" r="2.98352" transform="rotate(-180 178.016 2.98337)" fill="#F1952B"/>
<circle cx="134.258" cy="2.98337" r="2.98352" transform="rotate(-180 134.258 2.98337)" fill="#F1952B"/>
<circle cx="90.5001" cy="2.98336" r="2.98352" transform="rotate(-180 90.5001 2.98336)" fill="#F1952B"/>
<circle cx="46.7418" cy="2.98336" r="2.98352" transform="rotate(-180 46.7418 2.98336)" fill="#F1952B"/>
<circle cx="2.98353" cy="2.98339" r="2.98352" transform="rotate(-180 2.98353 2.98339)" fill="#F1952B"/>
</svg>
