<svg width="132" height="119" viewBox="0 0 132 119" fill="none" xmlns="http://www.w3.org/2000/svg">
<path fill-rule="evenodd" clip-rule="evenodd" d="M82.4128 110.256C87.2099 110.969 91.9492 111.717 96.7645 112.291C97.8001 112.418 98.7341 111.685 98.8572 110.656C98.9844 109.62 98.2452 108.682 97.216 108.559C92.4277 107.985 87.7283 107.244 82.9647 106.534C81.935 106.384 80.9794 107.095 80.8269 108.114C80.6767 109.144 81.3831 110.105 82.4128 110.256Z" fill="#F1952B"/>
<path fill-rule="evenodd" clip-rule="evenodd" d="M67.7155 72.9353C80.6307 64.6858 93.1209 55.7887 105.852 47.2691C106.716 46.6876 106.945 45.5208 106.37 44.6609C105.788 43.797 104.625 43.5617 103.755 44.1391C91.0493 52.6478 78.5841 61.5341 65.6915 69.7623C64.8126 70.3253 64.5602 71.4862 65.1169 72.361C65.6798 73.2398 66.8407 73.492 67.7155 72.9353Z" fill="#F1952B"/>
<path fill-rule="evenodd" clip-rule="evenodd" d="M23.2388 40.1574C28.4085 28.278 33.2537 16.2355 38.5559 4.41425C38.9748 3.46731 38.5517 2.35644 37.6088 1.93121C36.6596 1.50192 35.5446 1.93141 35.1194 2.87429C29.8154 14.7123 24.962 26.7675 19.7906 38.6636C19.378 39.6146 19.8115 40.7233 20.7625 41.1359C21.7198 41.5525 22.8222 41.1147 23.2388 40.1574Z" fill="#F1952B"/>
</svg>
