<svg width="1830" height="1195" viewBox="0 0 1830 1195" fill="none" xmlns="http://www.w3.org/2000/svg">
<path opacity="0.2" fill-rule="evenodd" clip-rule="evenodd" d="M456.395 862.137C286.692 1069.05 204.26 986.403 189.39 967.677C180.56 946.155 182.771 923.474 207.834 904.313C209.818 902.802 211.82 901.329 213.841 899.892C222.96 893.605 232.286 887.925 242.299 882.799C241.849 883.004 241.36 883.227 240.831 883.467C240.431 883.65 240.008 883.842 239.563 884.045C300.739 851.677 375.716 846.81 459.626 857.693C457.713 860.349 456.582 861.905 456.395 862.137ZM13.6438 1118.33C-29.3637 1029.96 30.6855 883.78 211.597 791.564C306.457 743.523 426.543 727.299 554.818 723.587C565.997 707.645 575.733 693.637 582.343 683.899C584.561 680.63 587.9 675.504 592.303 668.745L592.309 668.737C647.314 584.298 868.268 245.109 1143.91 89.1318C1143.18 89.0631 1142.46 88.9969 1141.73 88.9331C1776.1 -294.557 2080.38 681.081 1576.39 997.16C1364.95 1129.93 1077.68 1037.03 810.756 950.706L810.752 950.705C729.749 924.509 650.62 898.918 576.054 880.426C540.545 934.141 491.471 1002.35 449.911 1038.17C449.902 1038.1 448.787 1038.47 446.704 1039.15L445.891 1039.42C410.333 1072.8 369.734 1105.89 327.585 1132.81C272.554 1168.24 214.783 1193.28 162.068 1194.78C108.455 1194.18 67.0148 1179.68 39.2269 1155.34C26.8649 1143.02 18.5514 1130.64 13.6438 1118.33ZM811.938 726.951C765.682 725.406 719.064 723.849 672.822 723.117C737.173 619.351 822.374 492.604 902.627 397.85C1005.24 276.692 1140.59 256.002 1140.59 256.002C1438.51 219.461 1472.91 421.264 1476.34 450.835C1476.23 477.099 1472.45 503.095 1464.58 528.153C1395.96 746.453 1111.56 736.956 811.938 726.951ZM1201.56 99.9146C1192.59 97.3925 1183.48 95.2373 1174.26 93.4714C1182.23 95.0977 1191.47 97.2087 1201.56 99.9146Z" fill="#F1952B"/>
</svg>
