<svg width="176" height="120" viewBox="0 0 176 120" fill="none" xmlns="http://www.w3.org/2000/svg">
<path d="M0.153536 77.7033C0.260292 77.4364 0.420425 77.1695 0.687314 76.956C0.900825 76.7425 1.16771 76.5823 1.4346 76.4756C1.70149 76.3688 1.96838 76.3154 2.28865 76.3154C2.60891 76.3154 2.92919 76.3688 3.19608 76.4756C3.46296 76.5823 3.78323 76.7425 4.05012 76.956C4.31701 77.1695 4.53051 77.4364 4.63727 77.7033C4.74402 78.0235 4.85079 78.3438 4.85079 78.7708C4.79741 79.1978 4.74403 79.5181 4.5839 79.8384C4.42377 80.1586 4.21025 80.4255 3.99674 80.5857C3.78323 80.7992 3.51635 80.9593 3.24946 81.0661C2.98257 81.1728 2.71568 81.2262 2.39541 81.2262C2.12852 81.2262 1.80825 81.1728 1.54136 81.0661C1.27447 80.9593 1.00759 80.7992 0.794076 80.5857C0.527187 80.3721 0.367051 80.1053 0.206917 79.785C0.100162 79.4647 0.0467905 79.1445 0.0467905 78.7708V78.6641C-0.00658729 78.2904 0.0467807 77.9701 0.153536 77.7033ZM0.313679 86.2437C0.367057 86.2971 0.367047 86.3505 0.420425 86.3505C0.473803 86.3505 0.473809 86.3505 0.527187 86.3505C0.527187 86.4038 0.52719 86.4038 0.580568 86.4038C0.633946 86.4038 0.633936 86.4038 0.687314 86.4038C0.740692 86.4572 0.794079 86.4572 0.847457 86.4572C0.900835 86.4572 0.954206 86.4572 1.00758 86.4572C1.11434 86.5106 1.2211 86.5106 1.32785 86.564C1.43461 86.6173 1.54137 86.6173 1.64812 86.6173C1.75488 86.6173 1.86162 86.6173 1.96838 86.6173C2.07513 86.6173 2.18189 86.6173 2.28865 86.6173C2.44878 86.6173 2.60891 86.6173 2.76904 86.6173C2.92918 86.6173 3.08932 86.6173 3.24946 86.564C3.40959 86.5106 3.56972 86.5106 3.72985 86.4572C3.88999 86.4038 4.05011 86.3505 4.15687 86.3505V107.595C4.05011 107.595 3.88999 107.595 3.78323 107.595C3.67648 107.595 3.51634 107.541 3.3562 107.541C3.19607 107.488 3.03594 107.488 2.87581 107.488C2.71567 107.488 2.55554 107.488 2.39541 107.488C2.28865 107.488 2.23528 107.488 2.12852 107.488C2.02176 107.488 1.96839 107.488 1.91501 107.541C1.80826 107.541 1.75488 107.541 1.64812 107.541C1.54137 107.541 1.48799 107.541 1.38123 107.541C1.2211 107.595 1.00759 107.595 0.847457 107.595C0.687324 107.595 0.473813 107.595 0.313679 107.595V86.2437Z" fill="white"/>
<path d="M11.1495 86.2444C11.2563 86.2978 11.3631 86.3512 11.4698 86.4046C11.5766 86.4579 11.7367 86.5113 11.8434 86.5113C12.0036 86.5647 12.1103 86.5647 12.2705 86.5647C12.3772 86.5647 12.5374 86.5647 12.6441 86.5647C12.6975 86.5647 12.6975 86.5647 12.7509 86.5647C12.8042 86.5647 12.8043 86.5647 12.8576 86.5647C12.911 86.5647 12.911 86.5647 12.9644 86.5647C13.0178 86.5647 13.0178 86.5647 13.0711 86.5647C13.1779 86.5647 13.2313 86.5647 13.338 86.5647C13.4448 86.5647 13.4982 86.5647 13.6049 86.5647C13.6583 86.5647 13.7117 86.5647 13.8184 86.5647C13.9252 86.5647 13.9786 86.5647 14.0853 86.5647C14.2454 86.5113 14.4056 86.5113 14.5657 86.4579C14.7258 86.4046 14.886 86.3512 14.9927 86.3512V90.0343C15.0995 89.9809 15.1529 89.8741 15.2596 89.7674C15.3664 89.6606 15.4731 89.5005 15.5799 89.3403C15.6866 89.1802 15.8468 89.0734 15.9535 88.9133C16.0603 88.7532 16.2204 88.5931 16.3806 88.4329C16.6474 88.166 17.0211 87.8458 17.3947 87.5789C17.7684 87.312 18.1954 87.0451 18.6758 86.7782C19.1562 86.5113 19.69 86.2978 20.2771 86.191C20.8643 86.0843 21.5582 85.9775 22.3055 85.9775H22.3589C22.4122 85.9775 22.4123 85.9775 22.4656 85.9775C23.3197 86.0309 24.1203 86.1911 24.8676 86.5647C25.6149 86.9383 26.3622 87.4187 27.0561 88.1126C27.75 88.8066 28.2838 89.714 28.6574 90.8349C29.0311 91.9559 29.1912 93.3437 29.1912 94.9984V107.649C29.1378 107.649 29.0845 107.649 29.0311 107.649C28.9777 107.649 28.9243 107.649 28.871 107.596C28.7642 107.596 28.7108 107.596 28.6574 107.596C28.6041 107.596 28.5507 107.596 28.4973 107.596C28.4439 107.596 28.3906 107.596 28.2838 107.596C28.2304 107.596 28.1237 107.596 28.0703 107.596C27.9635 107.542 27.9102 107.542 27.8034 107.542C27.75 107.542 27.6433 107.542 27.5899 107.542C27.4298 107.542 27.2696 107.542 27.1095 107.542C26.9494 107.542 26.7358 107.596 26.5757 107.596C26.4156 107.649 26.2021 107.649 26.0419 107.649C25.8284 107.649 25.6149 107.649 25.4014 107.649V94.8916C25.4014 93.8775 25.2946 93.0234 25.0278 92.2227C24.7609 91.4755 24.3872 90.7815 23.9068 90.3011C23.373 89.7674 22.8393 89.3937 22.2521 89.1268C21.665 88.8599 21.0778 88.7532 20.4906 88.7532C20.4373 88.7532 20.4373 88.7532 20.4373 88.7532H20.3839C20.3305 88.7532 20.3305 88.7532 20.3305 88.7532H20.2771C19.6366 88.8066 18.9961 88.9667 18.4089 89.287C17.8218 89.6072 17.2346 90.0343 16.7008 90.6214C16.167 91.1552 15.74 91.9025 15.4731 92.7031C15.2063 93.5572 15.0995 94.518 15.0995 95.6389V107.649C14.9394 107.649 14.7792 107.649 14.6191 107.649C14.459 107.649 14.2988 107.596 14.1387 107.596C13.9786 107.542 13.8718 107.542 13.7117 107.542C13.5515 107.542 13.4448 107.542 13.2846 107.542C13.1245 107.542 12.9644 107.542 12.8043 107.542C12.6441 107.542 12.484 107.596 12.3239 107.596C12.2171 107.596 12.1637 107.596 12.057 107.596C11.9502 107.596 11.8968 107.596 11.8434 107.596C11.7367 107.649 11.6833 107.649 11.5766 107.649C11.4698 107.649 11.4164 107.649 11.3097 107.649V86.2444H11.1495Z" fill="white"/>
<path d="M35.1158 88.6464H32.0199C32.0733 88.6998 32.0733 88.6464 32.0733 88.6464C32.0733 88.593 32.1266 88.5396 32.1266 88.4862C32.18 88.4329 32.18 88.3795 32.18 88.3261C32.18 88.2727 32.2334 88.2194 32.2334 88.1126C32.2334 88.0592 32.2334 88.0592 32.2334 88.0058C32.2334 87.9525 32.2334 87.9525 32.2334 87.8991C32.2334 87.8457 32.2334 87.7923 32.2334 87.7923C32.2334 87.7389 32.2334 87.739 32.18 87.6856C32.18 87.6322 32.18 87.6322 32.18 87.5788C32.18 87.5254 32.18 87.5254 32.18 87.4721C32.1266 87.3653 32.1266 87.3119 32.1266 87.2052C32.1266 87.1518 32.0733 87.0984 32.0199 87.045L35.1158 86.9383C35.4361 84.643 35.8631 82.7214 36.3969 81.1735C36.9306 79.5722 37.5712 78.3978 38.3718 77.4904C39.1725 76.6364 39.9732 75.9425 40.8272 75.5154C41.6813 75.0884 42.5353 74.8215 43.4427 74.8215C43.4961 74.8215 43.5495 74.8215 43.6029 74.8215C43.6562 74.8215 43.7096 74.8215 43.763 74.8215C43.8164 74.8749 43.8164 74.8749 43.8698 74.8749C43.9231 74.8749 43.9765 74.8749 44.0299 74.8749C44.1367 74.8749 44.2434 74.8749 44.3502 74.8749C44.4569 74.8749 44.5637 74.9283 44.6704 74.9283C44.5637 75.3019 44.5103 75.6222 44.4569 75.8891C44.4035 76.2094 44.3502 76.4762 44.3502 76.7431C44.2968 77.01 44.2968 77.3303 44.2968 77.5972C44.2968 77.8641 44.2968 78.131 44.2968 78.3979L43.9231 78.6647C43.763 78.6114 43.5495 78.6114 43.3894 78.5046C43.2292 78.4512 43.0157 78.3445 42.8556 78.2377C42.6421 78.1843 42.4286 78.131 42.2151 78.0776C42.0015 78.0242 41.7346 78.0242 41.4678 78.0242C40.7205 78.0242 40.1333 78.131 39.6529 78.3979C39.1725 78.6114 38.8522 78.985 38.5854 79.4654C38.3718 79.9458 38.1583 80.4262 38.0516 80.96C37.9448 81.4938 37.8915 82.0275 37.8915 82.6147C37.8915 82.6681 37.8915 82.6681 37.8915 82.7214C37.8915 82.7748 37.8915 82.7748 37.8915 82.8282C37.8915 82.8816 37.8915 82.8816 37.8915 82.935C37.8915 82.9883 37.8915 82.9883 37.8915 83.0417C37.8915 83.0951 37.8915 83.0951 37.8915 83.1485C37.8915 83.2018 37.8915 83.2018 37.8915 83.2552C37.8915 83.4687 37.8915 83.6822 37.8915 83.8424C37.8915 84.0559 37.9448 84.2694 37.9448 84.4295C37.9982 84.643 37.9982 84.8566 38.0516 85.0167C38.105 85.2302 38.105 85.3903 38.1583 85.6038C38.1583 85.7106 38.1583 85.8707 38.1583 85.9775C38.1583 86.0842 38.2117 86.2444 38.2117 86.3511C38.2117 86.4579 38.2117 86.5646 38.2117 86.7248C38.2117 86.8315 38.2651 86.9383 38.2651 87.045L43.1225 86.9383C43.0691 86.9917 43.0691 87.045 43.0691 87.045C43.0691 87.0984 43.0157 87.0984 43.0157 87.0984C42.9623 87.1518 42.9623 87.1518 42.9623 87.2052C42.9623 87.2586 42.9623 87.2586 42.9623 87.3119C42.909 87.3653 42.909 87.4187 42.909 87.5254C42.909 87.5788 42.909 87.6856 42.909 87.739C42.909 87.8457 42.909 87.8991 42.909 88.0058C42.909 88.1126 42.909 88.166 42.9623 88.2727C43.0157 88.3795 43.0157 88.4329 43.0691 88.5396C43.1225 88.6464 43.1758 88.6998 43.1758 88.8065L38.3185 88.6998V107.649C38.2651 107.649 38.2117 107.649 38.1583 107.649C38.105 107.649 38.0516 107.649 37.9982 107.595C37.8914 107.595 37.8381 107.595 37.7847 107.595C37.7313 107.595 37.6779 107.595 37.6246 107.595C37.5178 107.542 37.3577 107.542 37.2509 107.542C37.1442 107.542 36.984 107.542 36.8239 107.542C36.6638 107.542 36.5036 107.542 36.3435 107.542C36.1834 107.542 36.0232 107.595 35.8631 107.595C35.703 107.649 35.5428 107.649 35.3827 107.649C35.2226 107.649 35.0624 107.649 34.9023 107.649V88.6464H35.1158Z" fill="white"/>
<path d="M46.1118 77.7033C46.2186 77.4364 46.3787 77.1695 46.6456 76.956C46.8591 76.7425 47.126 76.5823 47.3929 76.4756C47.6598 76.3688 47.9267 76.3154 48.2469 76.3154C48.5672 76.3154 48.8875 76.3688 49.1544 76.4756C49.4213 76.5823 49.7415 76.7425 50.0084 76.956C50.2753 77.1695 50.4888 77.4364 50.5956 77.7033C50.7023 78.0235 50.8091 78.3438 50.8091 78.7708C50.7557 79.1978 50.7023 79.5181 50.5422 79.8384C50.382 80.1586 50.1685 80.4255 49.955 80.5857C49.7415 80.7992 49.4746 80.9593 49.2077 81.0661C48.9408 81.1728 48.674 81.2262 48.3537 81.2262C48.0868 81.2262 47.7665 81.1728 47.4997 81.0661C47.2328 80.9593 46.9659 80.7992 46.7524 80.5857C46.4855 80.3721 46.3253 80.1053 46.1652 79.785C46.0585 79.4647 46.0051 79.1445 46.0051 78.7708V78.6641C45.9517 78.2904 46.0051 77.9701 46.1118 77.7033ZM46.3253 86.2437C46.3787 86.2971 46.3787 86.3505 46.4321 86.3505C46.4855 86.3505 46.4855 86.3505 46.5388 86.3505C46.5388 86.4038 46.5389 86.4038 46.5922 86.4038C46.6456 86.4038 46.6456 86.4038 46.699 86.4038C46.7524 86.4572 46.8057 86.4572 46.8591 86.4572C46.9125 86.4572 46.9659 86.4572 47.0193 86.4572C47.126 86.5106 47.2328 86.5106 47.3395 86.564C47.4463 86.6173 47.553 86.6173 47.6598 86.6173C47.7665 86.6173 47.8733 86.6173 47.9801 86.6173C48.0868 86.6173 48.1936 86.6173 48.3003 86.6173C48.4605 86.6173 48.6206 86.6173 48.7807 86.6173C48.9409 86.6173 49.101 86.6173 49.2611 86.564C49.4213 86.5106 49.5814 86.5106 49.7415 86.4572C49.9016 86.4038 50.0618 86.3505 50.1685 86.3505V107.595C50.0618 107.595 49.9017 107.595 49.7949 107.595C49.6881 107.595 49.528 107.541 49.3679 107.541C49.2077 107.488 49.0476 107.488 48.8875 107.488C48.7273 107.488 48.5672 107.488 48.4071 107.488C48.3003 107.488 48.2469 107.488 48.1402 107.488C48.0334 107.488 47.9801 107.488 47.9267 107.541C47.8199 107.541 47.7665 107.541 47.6598 107.541C47.553 107.541 47.4997 107.541 47.3929 107.541C47.2328 107.595 47.0193 107.595 46.8591 107.595C46.699 107.595 46.4855 107.595 46.3253 107.595V86.2437Z" fill="white"/>
<path d="M57.1609 86.2444C57.2676 86.2978 57.3744 86.3512 57.4811 86.4046C57.5879 86.4579 57.748 86.5113 57.8548 86.5113C58.0149 86.5647 58.1217 86.5647 58.2818 86.5647C58.3886 86.5647 58.5487 86.5647 58.6555 86.5647C58.7088 86.5647 58.7088 86.5647 58.7622 86.5647C58.8156 86.5647 58.8156 86.5647 58.869 86.5647C58.9223 86.5647 58.9224 86.5647 58.9757 86.5647C59.0291 86.5647 59.0291 86.5647 59.0825 86.5647C59.1892 86.5647 59.2426 86.5647 59.3494 86.5647C59.4561 86.5647 59.5095 86.5647 59.6163 86.5647C59.6696 86.5647 59.723 86.5647 59.8298 86.5647C59.9365 86.5647 59.9899 86.5647 60.0967 86.5647C60.2568 86.5113 60.4169 86.5113 60.5771 86.4579C60.7372 86.4046 60.8973 86.3512 61.0041 86.3512V90.0343C61.1108 89.9809 61.1642 89.8741 61.271 89.7674C61.3777 89.6606 61.4845 89.5005 61.5912 89.3403C61.698 89.1802 61.8581 89.0734 61.9649 88.9133C62.0716 88.7532 62.2318 88.5931 62.3919 88.4329C62.6588 88.166 63.0324 87.8458 63.4061 87.5789C63.7797 87.312 64.2067 87.0451 64.6871 86.7782C65.1675 86.5113 65.7013 86.2978 66.2885 86.191C66.8756 86.0843 67.5696 85.9775 68.3168 85.9775H68.3702C68.4236 85.9775 68.4236 85.9775 68.477 85.9775C69.331 86.0309 70.1317 86.1911 70.879 86.5647C71.6263 86.9383 72.3735 87.4187 73.0675 88.1126C73.7614 88.8066 74.2951 89.714 74.6688 90.8349C75.0424 91.9559 75.2026 93.3437 75.2026 94.9984V107.649C75.1492 107.649 75.0958 107.649 75.0424 107.649C74.9891 107.649 74.9357 107.649 74.8823 107.596C74.7755 107.596 74.7222 107.596 74.6688 107.596C74.6154 107.596 74.562 107.596 74.5087 107.596C74.4553 107.596 74.4019 107.596 74.2951 107.596C74.2418 107.596 74.135 107.596 74.0816 107.596C73.9749 107.542 73.9215 107.542 73.8147 107.542C73.7614 107.542 73.6546 107.542 73.6012 107.542C73.4411 107.542 73.281 107.542 73.1208 107.542C72.9607 107.542 72.7472 107.596 72.5871 107.596C72.4269 107.649 72.2134 107.649 72.0533 107.649C71.8398 107.649 71.6263 107.649 71.4127 107.649V94.8916C71.4127 93.8775 71.306 93.0234 71.0391 92.2227C70.7722 91.4755 70.3986 90.7815 69.9182 90.3011C69.3844 89.7674 68.8506 89.3937 68.2635 89.1268C67.6763 88.8599 67.0892 88.7532 66.502 88.7532C66.4486 88.7532 66.4486 88.7532 66.4486 88.7532H66.3952C66.3419 88.7532 66.3419 88.7532 66.3419 88.7532H66.2885C65.6479 88.8066 65.0074 88.9667 64.4203 89.287C63.8331 89.6072 63.246 90.0343 62.7122 90.6214C62.1784 91.1552 61.7514 91.9025 61.4845 92.7031C61.2176 93.5572 61.1108 94.518 61.1108 95.6389V107.649C60.9507 107.649 60.7906 107.649 60.6304 107.649C60.4703 107.649 60.3102 107.596 60.15 107.596C59.9899 107.542 59.8831 107.542 59.723 107.542C59.5629 107.542 59.4561 107.542 59.296 107.542C59.1359 107.542 58.9757 107.542 58.8156 107.542C58.6555 107.542 58.4953 107.596 58.3352 107.596C58.2284 107.596 58.1751 107.596 58.0683 107.596C57.9615 107.596 57.9082 107.596 57.8548 107.596C57.748 107.649 57.6947 107.649 57.5879 107.649C57.4811 107.649 57.4278 107.649 57.321 107.649V86.2444H57.1609Z" fill="white"/>
<path d="M80.9139 77.7033C81.0207 77.4364 81.1808 77.1695 81.4477 76.956C81.6612 76.7425 81.9281 76.5823 82.195 76.4756C82.4618 76.3688 82.7287 76.3154 83.049 76.3154C83.3693 76.3154 83.6895 76.3688 83.9564 76.4756C84.2233 76.5823 84.5436 76.7425 84.8105 76.956C85.0774 77.1695 85.2909 77.4364 85.3976 77.7033C85.5044 78.0235 85.6111 78.3438 85.6111 78.7708C85.5578 79.1978 85.5044 79.5181 85.3442 79.8384C85.1841 80.1586 84.9706 80.4255 84.7571 80.5857C84.5436 80.7992 84.2767 80.9593 84.0098 81.0661C83.7429 81.1728 83.476 81.2262 83.1558 81.2262C82.8889 81.2262 82.5686 81.1728 82.3017 81.0661C82.0348 80.9593 81.7679 80.7992 81.5544 80.5857C81.2875 80.3721 81.1274 80.1053 80.9673 79.785C80.8605 79.4647 80.8071 79.1445 80.8071 78.7708V78.6641C80.7538 78.2904 80.8071 77.9701 80.9139 77.7033ZM81.074 86.2437C81.1274 86.2971 81.1274 86.3505 81.1808 86.3505C81.2342 86.3505 81.2342 86.3505 81.2875 86.3505C81.2875 86.4038 81.2875 86.4038 81.3409 86.4038C81.3943 86.4038 81.3943 86.4038 81.4477 86.4038C81.5011 86.4572 81.5544 86.4572 81.6078 86.4572C81.6612 86.4572 81.7145 86.4572 81.7679 86.4572C81.8747 86.5106 81.9814 86.5106 82.0882 86.564C82.195 86.6173 82.3017 86.6173 82.4085 86.6173C82.5152 86.6173 82.622 86.6173 82.7287 86.6173C82.8355 86.6173 82.9423 86.6173 83.049 86.6173C83.2091 86.6173 83.3693 86.6173 83.5294 86.6173C83.6895 86.6173 83.8497 86.6173 84.0098 86.564C84.1699 86.5106 84.3301 86.5106 84.4902 86.4572C84.6503 86.4038 84.8105 86.3505 84.9172 86.3505V107.595C84.8105 107.595 84.6503 107.595 84.5436 107.595C84.4368 107.595 84.2767 107.541 84.1166 107.541C83.9564 107.488 83.7963 107.488 83.6361 107.488C83.476 107.488 83.3159 107.488 83.1558 107.488C83.049 107.488 82.9956 107.488 82.8889 107.488C82.7821 107.488 82.7287 107.488 82.6754 107.541C82.5686 107.541 82.5152 107.541 82.4085 107.541C82.3017 107.541 82.2483 107.541 82.1416 107.541C81.9814 107.595 81.7679 107.595 81.6078 107.595C81.4477 107.595 81.2342 107.595 81.074 107.595V86.2437Z" fill="white"/>
<path d="M91.6431 86.8316C91.7498 86.8849 91.9099 86.9383 92.0701 86.9383C92.2302 86.9917 92.337 86.9917 92.4971 86.9917C92.6572 86.9917 92.764 86.9917 92.9241 86.9917C93.0843 86.9917 93.2444 86.9917 93.4045 86.9917C93.5646 86.9917 93.7248 86.9917 93.8849 86.9383C93.9383 86.9383 93.9917 86.9383 94.0984 86.9383C94.1518 86.9383 94.2586 86.8849 94.3653 86.8849C94.4187 86.8316 94.4721 86.8316 94.5788 86.8316C94.6322 86.8316 94.739 86.7782 94.7924 86.7782V91.1552C95.0592 90.4079 95.3795 89.7673 95.8065 89.2336C96.2335 88.6464 96.7139 88.2194 97.2477 87.8457C97.7815 87.4721 98.3153 87.2052 98.9024 86.9917C99.4896 86.7782 100.023 86.618 100.611 86.5113C100.664 86.5113 100.717 86.5113 100.771 86.5113C100.824 86.5113 100.877 86.5113 100.931 86.4579C100.984 86.4579 101.038 86.4579 101.091 86.4579C101.144 86.4579 101.198 86.4579 101.251 86.4579C101.304 86.4579 101.358 86.4579 101.411 86.4579C101.465 86.4579 101.518 86.4579 101.571 86.4045C101.625 86.4045 101.678 86.4045 101.731 86.4045C101.785 86.4045 101.838 86.4045 101.892 86.4045C103.173 86.4045 104.347 86.618 105.415 87.0451C106.482 87.4721 107.443 88.1126 108.297 88.9667C109.151 89.8207 109.791 90.9416 110.219 92.3828C110.646 93.824 110.859 95.4788 110.859 97.5071C110.859 98.8416 110.699 100.123 110.325 101.35C109.952 102.578 109.418 103.699 108.617 104.82C107.87 105.941 106.962 106.741 105.842 107.275C104.721 107.809 103.386 108.076 101.838 108.076C101.785 108.076 101.785 108.076 101.731 108.076C101.678 108.076 101.678 108.076 101.625 108.076C101.571 108.076 101.571 108.076 101.571 108.076H101.518C101.465 108.076 101.465 108.076 101.411 108.076C101.358 108.076 101.358 108.076 101.304 108.076C101.251 108.076 101.251 108.076 101.251 108.076H101.198C100.237 108.076 99.4362 107.969 98.7423 107.809C98.0484 107.596 97.4079 107.329 96.9275 106.848C96.4471 106.421 95.9667 105.994 95.593 105.514C95.2194 105.033 94.8991 104.553 94.6856 104.019V119.125C94.6322 119.072 94.5788 119.072 94.4721 119.072C94.4187 119.072 94.312 119.018 94.2586 119.018C94.1518 118.965 94.0984 118.965 93.9917 118.965C93.9383 118.965 93.8315 118.965 93.7782 118.965C93.6714 118.912 93.5113 118.912 93.3511 118.912C93.191 118.912 93.0309 118.912 92.8707 118.912C92.7106 118.912 92.5505 118.912 92.3904 118.912C92.2302 118.912 92.0701 118.912 91.9099 118.965C91.7498 119.018 91.6431 119.018 91.4829 119.072C91.3762 119.125 91.216 119.125 91.0559 119.178V86.7782C91.3762 86.7248 91.5363 86.7782 91.6431 86.8316ZM94.6856 96.7598C94.6856 96.8132 94.6856 96.8666 94.6856 96.8666C94.6856 96.9199 94.6856 96.92 94.6856 96.9733C94.6856 97.0267 94.6856 97.0267 94.6856 97.0801C94.6856 97.2936 94.6856 97.5605 94.6856 97.8808C94.6856 98.201 94.6856 98.5213 94.739 98.8416C94.739 99.2152 94.7923 99.5888 94.8457 99.9625C94.8991 100.336 95.0058 100.71 95.1126 101.137C95.2727 101.671 95.4863 102.204 95.7531 102.738C96.02 103.219 96.3937 103.752 96.7673 104.233C97.1944 104.713 97.6747 105.087 98.3153 105.407C98.9558 105.727 99.7031 105.941 100.557 106.101C100.611 106.101 100.611 106.101 100.611 106.101H100.664C100.717 106.101 100.717 106.101 100.771 106.101C100.824 106.101 100.824 106.101 100.877 106.101C100.877 106.154 100.877 106.154 100.931 106.154C100.984 106.154 100.984 106.154 101.038 106.154C101.091 106.154 101.091 106.154 101.091 106.154H101.144C101.998 106.154 102.746 105.941 103.44 105.567C104.133 105.194 104.721 104.66 105.201 103.912C105.681 103.165 106.055 102.258 106.322 101.19C106.589 100.123 106.696 98.8949 106.696 97.5071C106.696 97.4004 106.696 97.2936 106.696 97.1868C106.696 97.0801 106.696 96.9733 106.696 96.8666C106.696 96.8132 106.696 96.7598 106.696 96.7064C106.696 96.6531 106.696 96.5997 106.696 96.5463C106.642 96.4929 106.642 96.4396 106.642 96.3862C106.642 96.3328 106.642 96.2794 106.642 96.226C106.589 95.2119 106.482 94.3045 106.269 93.3437C106.055 92.4362 105.788 91.5822 105.415 90.7281C105.041 89.8741 104.507 89.2335 103.813 88.8599C103.119 88.4329 102.319 88.2728 101.251 88.2728C101.198 88.2728 101.198 88.2728 101.198 88.2728H101.144C101.091 88.2728 101.091 88.2728 101.038 88.2728C100.984 88.2728 100.984 88.2728 100.931 88.2728C100.877 88.2728 100.877 88.2728 100.877 88.2728H100.824C100.077 88.2728 99.3828 88.4329 98.7423 88.7532C98.1018 89.0734 97.5146 89.5538 96.9808 90.2477C96.447 90.8883 96.02 91.7957 95.593 92.9166C95.2194 94.0376 94.8991 95.372 94.6322 96.92V96.8132C94.6856 96.6531 94.6856 96.7064 94.6856 96.7598Z" fill="white"/>
<path d="M114.435 100.976C114.649 100.389 114.969 99.8555 115.343 99.3751C115.77 98.8947 116.304 98.4143 117.051 98.0407C117.745 97.6671 118.652 97.2934 119.666 97.0799L125.164 95.959C125.485 95.9056 125.751 95.8522 126.018 95.6921C126.285 95.5853 126.445 95.3718 126.606 95.2117C126.766 94.9982 126.872 94.7313 126.926 94.4644C126.979 94.1975 127.033 93.9306 127.033 93.6104C127.033 93.557 127.033 93.5036 127.033 93.4502C127.033 93.3968 127.033 93.3435 127.033 93.2901C126.979 93.2367 126.979 93.1833 126.979 93.1299C126.979 93.0766 126.979 93.0232 126.979 92.9698C126.926 92.8631 126.926 92.7563 126.926 92.5962C126.926 92.4894 126.872 92.3827 126.819 92.2225C126.659 91.7421 126.445 91.3151 126.178 90.8881C125.912 90.4611 125.538 90.034 125.111 89.6604C124.684 89.2334 124.257 88.9665 123.723 88.753C123.189 88.5395 122.656 88.4327 122.015 88.4327C121.962 88.4327 121.962 88.4327 121.962 88.4327C121.962 88.4327 121.908 88.4327 121.855 88.4327C121.802 88.4327 121.802 88.4327 121.748 88.4327C121.695 88.4327 121.695 88.4327 121.641 88.4327C121.268 88.4327 120.947 88.4861 120.681 88.5395C120.414 88.5928 120.093 88.6996 119.827 88.8064C119.56 88.9131 119.293 89.0732 119.026 89.18C118.759 89.3401 118.492 89.5003 118.225 89.7138C118.065 89.8205 117.958 89.9807 117.798 90.0874C117.638 90.2476 117.531 90.3543 117.371 90.5144C117.211 90.6746 117.051 90.8347 116.891 90.9948C116.731 91.155 116.57 91.3685 116.41 91.5286L115.77 91.4219V89.0199C115.823 89.0199 115.877 89.0199 115.983 88.9665C116.09 88.9131 116.143 88.9131 116.25 88.8597C116.357 88.8063 116.41 88.753 116.517 88.6996C116.624 88.6462 116.677 88.5928 116.784 88.5395C117.211 88.326 117.638 88.1124 118.065 87.8989C118.492 87.6854 119.026 87.5253 119.506 87.3118C120.04 87.1516 120.574 86.9915 121.161 86.8848C121.748 86.778 122.335 86.7246 122.976 86.7246C124.257 86.7246 125.378 86.8848 126.339 87.1516C127.299 87.4185 128.1 87.8455 128.687 88.3793C129.274 88.9131 129.755 89.6604 130.075 90.6212C130.395 91.5286 130.555 92.6495 130.555 93.9306V104.873C130.555 105.14 130.555 105.407 130.609 105.567C130.662 105.727 130.716 105.834 130.876 105.941C130.982 106.047 131.143 106.101 131.249 106.154C131.41 106.208 131.57 106.207 131.73 106.207C131.837 106.207 131.89 106.207 131.997 106.207C132.103 106.207 132.21 106.208 132.317 106.154C132.424 106.154 132.53 106.154 132.637 106.101C132.744 106.047 132.851 106.047 132.957 105.994V106.901C132.797 107.062 132.637 107.222 132.477 107.328C132.317 107.435 132.157 107.489 131.997 107.595C131.89 107.649 131.837 107.649 131.73 107.649C131.623 107.649 131.57 107.649 131.463 107.702C131.356 107.755 131.249 107.755 131.143 107.755C131.036 107.755 130.982 107.755 130.876 107.755C130.822 107.755 130.822 107.755 130.822 107.755C130.822 107.755 130.822 107.755 130.822 107.809C130.769 107.809 130.769 107.809 130.769 107.809H130.716C130.662 107.809 130.662 107.809 130.609 107.809C130.555 107.809 130.555 107.809 130.555 107.809H130.502C130.075 107.809 129.648 107.755 129.221 107.649C128.794 107.542 128.42 107.382 128.1 107.168C127.726 106.955 127.406 106.635 127.246 106.314C127.033 105.994 126.926 105.62 126.872 105.247C126.766 105.353 126.712 105.407 126.606 105.46C126.552 105.514 126.445 105.567 126.392 105.62C126.285 105.674 126.232 105.727 126.125 105.78C126.072 105.834 125.965 105.887 125.912 105.941C125.378 106.368 124.897 106.688 124.364 107.008C123.883 107.275 123.349 107.542 122.869 107.649C122.389 107.809 121.908 107.969 121.428 108.022C120.947 108.129 120.467 108.129 120.04 108.129C119.186 108.129 118.385 108.022 117.638 107.755C116.944 107.489 116.25 107.115 115.716 106.635C115.183 106.101 114.756 105.514 114.435 104.873C114.168 104.233 114.008 103.485 114.008 102.738V102.631C114.115 102.151 114.222 101.564 114.435 100.976ZM126.926 97.2934C125.324 97.5069 123.937 97.7204 122.762 97.9873C121.588 98.2542 120.681 98.5745 119.987 99.0015C119.293 99.3751 118.759 99.8555 118.385 100.389C118.012 100.923 117.852 101.617 117.852 102.364C117.852 102.471 117.852 102.578 117.852 102.685C117.852 102.791 117.852 102.898 117.905 102.951C117.905 103.058 117.905 103.112 117.905 103.218C117.905 103.325 117.958 103.432 117.958 103.539C117.958 103.592 117.958 103.592 117.958 103.592C117.958 103.592 117.958 103.645 118.012 103.645C118.012 103.699 118.012 103.699 118.012 103.699V103.752C118.012 103.806 118.012 103.805 118.012 103.805C118.012 103.805 118.012 103.805 118.065 103.805C118.065 103.859 118.065 103.859 118.065 103.859L118.118 103.912C118.279 104.179 118.439 104.446 118.652 104.66C118.866 104.873 119.133 105.14 119.506 105.353C119.88 105.567 120.254 105.727 120.627 105.834C121.001 105.941 121.428 105.994 121.908 105.994C122.122 105.994 122.389 105.994 122.602 105.941C122.816 105.887 123.029 105.887 123.296 105.834C123.51 105.78 123.777 105.674 123.99 105.567C124.204 105.46 124.47 105.353 124.684 105.193C124.844 105.087 125.058 104.926 125.218 104.82C125.431 104.66 125.591 104.499 125.805 104.339C125.912 104.233 125.965 104.179 126.072 104.072C126.178 103.966 126.285 103.859 126.392 103.752C126.499 103.645 126.552 103.539 126.659 103.378C126.766 103.272 126.819 103.165 126.926 103.005V102.898V97.2934Z" fill="white"/>
<path d="M135.68 93.2367C136.16 91.9023 136.907 90.7279 137.868 89.7671C138.829 88.753 140.057 88.0057 141.498 87.4719C142.992 86.9381 144.7 86.7246 146.675 86.7246C147.209 86.7246 147.69 86.7246 148.117 86.778C148.544 86.8314 148.971 86.8847 149.344 86.9915C149.718 87.0983 150.038 87.1516 150.412 87.2584C150.785 87.3651 151.106 87.4719 151.479 87.632C151.533 87.6854 151.586 87.6854 151.693 87.7388C151.746 87.7922 151.853 87.7922 151.96 87.8455C152.013 87.8989 152.067 87.9523 152.173 87.9523C152.227 88.0057 152.333 88.0057 152.387 88.0591C152.547 88.1658 152.654 88.2192 152.814 88.3259C152.974 88.3793 153.134 88.4861 153.294 88.5395L152.6 91.582H151.906C151.533 91.1016 151.159 90.6746 150.785 90.3009C150.412 89.9273 149.985 89.607 149.504 89.3401C149.024 89.0732 148.49 88.8597 147.903 88.753C147.316 88.6462 146.675 88.5395 146.035 88.5395C144.914 88.5395 143.953 88.753 143.099 89.2334C142.245 89.7138 141.498 90.4077 140.911 91.3151C140.323 92.2225 139.896 93.1833 139.576 94.2509C139.309 95.2651 139.149 96.3326 139.149 97.4535C139.149 98.5745 139.309 99.6954 139.63 100.71C139.95 101.724 140.377 102.738 141.017 103.645C141.604 104.606 142.405 105.3 143.366 105.727C144.327 106.207 145.448 106.421 146.729 106.421C147.423 106.421 148.01 106.368 148.544 106.261C149.077 106.154 149.611 105.994 150.038 105.78C150.519 105.567 150.946 105.247 151.373 104.926C151.8 104.606 152.227 104.233 152.707 103.859C152.707 103.806 152.707 103.805 152.707 103.805L152.76 103.752C152.814 103.752 152.814 103.752 152.814 103.752L152.867 103.699L153.241 103.912L152.867 105.994C152.387 106.421 151.906 106.741 151.319 107.062C150.785 107.328 150.198 107.595 149.611 107.702C149.024 107.862 148.383 107.969 147.796 108.076C147.209 108.182 146.569 108.236 145.981 108.236C145.928 108.236 145.928 108.236 145.928 108.236H145.875C145.821 108.236 145.821 108.236 145.821 108.236H145.768C144.434 108.182 143.152 107.969 141.871 107.542C140.644 107.115 139.469 106.474 138.348 105.62C137.228 104.766 136.373 103.752 135.786 102.471C135.253 101.243 134.932 99.8022 134.932 98.2008C134.932 98.1475 134.932 98.1475 134.932 98.0941C134.932 98.0407 134.932 98.0407 134.932 98.0407V97.9873C134.932 97.9339 134.932 97.934 134.932 97.8806C134.932 97.8272 134.932 97.8272 134.932 97.8272V97.7738V97.6671C134.986 96.0123 135.199 94.5711 135.68 93.2367Z" fill="white"/>
<path d="M157.564 73.8604C157.671 73.9137 157.778 73.9671 157.885 74.0205C157.992 74.0739 158.152 74.1272 158.258 74.1272C158.419 74.1806 158.525 74.1806 158.685 74.1806C158.792 74.1806 158.952 74.1806 159.059 74.1806C159.112 74.1806 159.112 74.1806 159.166 74.1806C159.219 74.1806 159.219 74.1806 159.273 74.1806C159.326 74.1806 159.326 74.1806 159.379 74.1806C159.433 74.1806 159.433 74.1806 159.486 74.1806C159.593 74.1806 159.646 74.1806 159.753 74.1806C159.86 74.1806 159.913 74.1806 160.02 74.1806C160.073 74.1806 160.127 74.1806 160.233 74.1806C160.34 74.1806 160.394 74.1806 160.5 74.1806C160.66 74.1272 160.821 74.1272 160.981 74.0739C161.141 74.0205 161.301 74.0205 161.408 73.9671V94.9446C161.408 94.9979 161.408 95.0513 161.408 95.1047V95.1581C161.408 95.2648 161.408 95.3182 161.408 95.3716C161.408 95.425 161.408 95.4783 161.461 95.5317C161.514 95.5851 161.514 95.5851 161.568 95.5851C161.621 95.5851 161.675 95.5851 161.728 95.5851C161.941 95.5851 162.208 95.4783 162.582 95.2648C162.956 95.0513 163.383 94.6777 163.916 94.2507C164.397 93.8236 164.931 93.3432 165.518 92.8095C166.052 92.2757 166.639 91.7419 167.226 91.1014C167.279 91.048 167.333 90.9946 167.386 90.8879C167.439 90.8345 167.493 90.7277 167.546 90.621C167.6 90.5676 167.653 90.5142 167.76 90.4075C167.813 90.3541 167.92 90.2473 168.027 90.1406C168.187 89.9804 168.347 89.7669 168.507 89.6068C168.667 89.4467 168.827 89.2331 168.987 89.073C169.147 88.9129 169.308 88.7527 169.468 88.5926C169.628 88.4325 169.788 88.219 169.948 88.0588C170.268 87.7386 170.535 87.4183 170.802 87.1514C171.069 86.8845 171.336 86.5643 171.549 86.2974C171.656 86.3507 171.71 86.3507 171.816 86.4041C171.923 86.4575 172.03 86.4575 172.137 86.5109C172.243 86.5643 172.35 86.5643 172.457 86.5643C172.564 86.5643 172.67 86.5643 172.777 86.5643C172.831 86.5643 172.831 86.5643 172.831 86.5643H172.884C172.937 86.5643 172.937 86.5643 172.991 86.5643C173.044 86.5643 173.044 86.5643 173.044 86.5643H173.097C173.151 86.5643 173.151 86.5643 173.204 86.5643C173.364 86.5643 173.524 86.5643 173.685 86.5643C173.845 86.5643 174.005 86.5643 174.165 86.5109C174.325 86.4575 174.485 86.4575 174.645 86.4041C174.806 86.3507 174.966 86.2974 175.072 86.2974V86.5643L165.731 95.1581L175.713 106.848V107.542C175.606 107.542 175.553 107.542 175.446 107.542C175.339 107.542 175.286 107.542 175.179 107.488C175.126 107.488 175.126 107.488 175.072 107.488C175.019 107.488 174.966 107.488 174.966 107.435C174.912 107.435 174.859 107.435 174.859 107.435C174.806 107.435 174.806 107.435 174.752 107.435C174.645 107.435 174.592 107.435 174.485 107.435C174.379 107.435 174.325 107.435 174.218 107.435C174.165 107.435 174.165 107.435 174.112 107.435C174.058 107.435 174.005 107.435 174.005 107.382C173.951 107.382 173.898 107.382 173.898 107.382C173.845 107.382 173.845 107.382 173.791 107.382C173.631 107.382 173.418 107.382 173.258 107.382C173.097 107.382 172.884 107.435 172.724 107.435C172.564 107.488 172.35 107.488 172.19 107.488C172.03 107.488 171.816 107.488 171.656 107.488C171.443 107.275 171.176 107.061 170.962 106.848C170.749 106.634 170.535 106.367 170.268 106.101C170.055 105.834 169.841 105.567 169.628 105.3C169.414 105.033 169.201 104.766 168.934 104.499C168.133 103.538 167.333 102.631 166.639 101.724C165.945 100.869 165.251 100.015 164.61 99.1614C163.97 98.3607 163.436 97.7736 163.009 97.3466C162.582 96.9195 162.262 96.706 161.995 96.706C161.941 96.706 161.888 96.706 161.835 96.7594C161.781 96.8128 161.728 96.8128 161.675 96.8662C161.621 96.9195 161.621 97.0263 161.621 97.133C161.621 97.2398 161.621 97.3999 161.621 97.5067V107.382C161.514 107.382 161.354 107.382 161.248 107.382C161.141 107.382 160.981 107.328 160.821 107.328C160.66 107.275 160.5 107.275 160.34 107.275C160.18 107.275 160.02 107.275 159.86 107.275C159.753 107.275 159.7 107.275 159.593 107.275C159.486 107.275 159.433 107.275 159.379 107.328C159.273 107.328 159.219 107.328 159.112 107.328C159.006 107.328 158.952 107.328 158.846 107.328C158.685 107.382 158.472 107.382 158.312 107.382C158.152 107.382 157.938 107.382 157.778 107.382V73.8604H157.564Z" fill="white"/>
<path fill-rule="evenodd" clip-rule="evenodd" d="M48.6903 42.4261C48.6903 42.4261 52.1065 49.3652 62.9422 38.6896C63.049 38.5829 68.5469 32.3911 70.3083 30.3093C72.0698 28.2276 86.0548 10.0258 102.121 3.08667C102.121 3.08667 108.367 4.42111 111.623 8.42445C114.505 11.9474 118.028 16.8581 117.014 23.477C117.014 23.477 117.548 11.3069 101.001 11.5737C101.001 11.5737 94.0081 11.894 88.1365 17.4987C82.265 23.1033 75.6995 31.3235 71.8029 36.6079C71.8029 36.6079 65.8246 44.7213 61.6611 47.6037C61.6611 47.5504 50.6653 50.5929 48.6903 42.4261Z" fill="url(#paint0_linear_52_1602)"/>
<path d="M50.3453 45.1479C52 46.9628 55.3094 48.831 61.7148 47.4432C57.1243 50.9661 51.0926 54.3289 46.2886 53.9552C34.9191 52.9944 36.0934 39.4365 50.8791 33.7784C70.8424 26.1988 107.94 45.6817 116 27.1596C119.95 18.0854 112.851 5.22134 101.962 3.08623C136.284 -12.9805 146.479 38.2622 119.149 51.6066C97.3177 62.2822 65.9316 29.8819 50.0784 39.4899C47.623 40.9844 48.7973 43.4398 50.3453 45.1479Z" fill="url(#paint1_linear_52_1602)"/>
<mask id="mask0_52_1602" style="mask-type:luminance" maskUnits="userSpaceOnUse" x="38" y="0" width="97" height="54">
<path d="M50.3453 45.1479C52 46.9628 55.3094 48.831 61.7148 47.4432C57.1243 50.9661 51.0926 54.3289 46.2886 53.9552C34.9191 52.9944 36.0934 39.4365 50.8791 33.7784C70.8424 26.1988 107.94 45.6817 116 27.1596C119.95 18.0854 112.851 5.22134 101.962 3.08623C136.284 -12.9805 146.479 38.2622 119.149 51.6066C97.3177 62.2822 65.9316 29.8819 50.0784 39.4899C47.623 40.9844 48.7973 43.4398 50.3453 45.1479Z" fill="white"/>
</mask>
<g mask="url(#mask0_52_1602)">
<path d="M153.258 49.5245L42.5523 76.4802L27.6599 14.2951L138.365 -12.6606L153.258 49.5245Z" fill="url(#paint2_linear_52_1602)"/>
</g>
<path fill-rule="evenodd" clip-rule="evenodd" d="M40.1502 51.3396C34.4388 44.2937 50.0251 39.2228 51.9467 38.5823C51.2528 38.8492 50.6123 39.1694 49.9717 39.5431C48.6907 40.2904 48.3704 41.3045 48.5839 42.3187C48.7974 43.3329 49.4379 44.3471 50.2386 45.2011C51.8933 47.016 55.2027 48.8842 61.6081 47.4964C57.0176 51.0193 50.9859 54.3821 46.1819 54.0085C43.4596 53.6882 41.4313 52.7274 40.1502 51.3396Z" fill="#995D11"/>
<path fill-rule="evenodd" clip-rule="evenodd" d="M116.907 23.5834C117.815 16.7511 113.758 8.9579 107.246 5.16807C105.591 4.20727 103.83 3.51336 101.908 3.13972C117.388 -4.11966 128.01 2.33906 132.44 12.8545C133.027 35.9137 101.001 35.3799 101.001 35.3799C107.94 35.0596 113.384 33.0313 115.947 27.1597C116.427 25.9854 116.747 24.8111 116.907 23.5834Z" fill="#995D11"/>
<defs>
<linearGradient id="paint0_linear_52_1602" x1="48.5223" y1="25.8919" x2="117.253" y2="25.2107" gradientUnits="userSpaceOnUse">
<stop stop-color="#FDC300"/>
<stop offset="0.1999" stop-color="#F9BE00"/>
<stop offset="0.407" stop-color="#EBB000"/>
<stop offset="0.6175" stop-color="#D69800"/>
<stop offset="0.8289" stop-color="#BC7B0E"/>
<stop offset="0.967" stop-color="#A96515"/>
</linearGradient>
<linearGradient id="paint1_linear_52_1602" x1="84.4681" y1="58.0799" x2="91.0572" y2="-2.65454" gradientUnits="userSpaceOnUse">
<stop stop-color="#A96515"/>
<stop offset="0.5" stop-color="#C79016"/>
<stop offset="1" stop-color="#FDC300"/>
</linearGradient>
<linearGradient id="paint2_linear_52_1602" x1="95.0239" y1="70.0956" x2="85.7515" y2="-6.27244" gradientUnits="userSpaceOnUse">
<stop stop-color="#A96515"/>
<stop offset="0.5" stop-color="#C79016"/>
<stop offset="1" stop-color="#FDC300"/>
</linearGradient>
</defs>
</svg>
