<svg width="194" height="45" viewBox="0 0 194 45" fill="none" xmlns="http://www.w3.org/2000/svg">
<path d="M73.1628 16.4762C73.2362 16.2926 73.3464 16.1091 73.5299 15.9623C73.6768 15.8154 73.8603 15.7053 74.0439 15.6319C74.2274 15.5584 74.411 15.5217 74.6312 15.5217C74.8515 15.5217 75.0718 15.5584 75.2553 15.6319C75.4389 15.7053 75.6591 15.8154 75.8427 15.9623C76.0262 16.1091 76.1731 16.2926 76.2465 16.4762C76.3199 16.6965 76.3933 16.9167 76.3933 17.2104C76.3566 17.5041 76.3199 17.7243 76.2098 17.9446C76.0996 18.1649 75.9528 18.3484 75.806 18.4585C75.6591 18.6054 75.4756 18.7155 75.292 18.7889C75.1085 18.8624 74.9249 18.8991 74.7047 18.8991C74.5211 18.8991 74.3008 18.8624 74.1173 18.7889C73.9337 18.7155 73.7502 18.6054 73.6034 18.4585C73.4198 18.3117 73.3097 18.1281 73.1995 17.9079C73.1261 17.6876 73.0894 17.4674 73.0894 17.2104V17.137C73.0527 16.88 73.0894 16.6597 73.1628 16.4762ZM73.273 22.3498C73.3097 22.3865 73.3097 22.4232 73.3464 22.4232C73.3831 22.4232 73.3831 22.4232 73.4198 22.4232C73.4198 22.46 73.4198 22.46 73.4565 22.46C73.4932 22.46 73.4932 22.46 73.5299 22.46C73.5666 22.4967 73.6034 22.4967 73.6401 22.4967C73.6768 22.4967 73.7135 22.4967 73.7502 22.4967C73.8236 22.5334 73.897 22.5334 73.9705 22.5701C74.0439 22.6068 74.1173 22.6068 74.1907 22.6068C74.2641 22.6068 74.3376 22.6068 74.411 22.6068C74.4844 22.6068 74.5578 22.6068 74.6312 22.6068C74.7414 22.6068 74.8515 22.6068 74.9616 22.6068C75.0718 22.6068 75.1819 22.6068 75.292 22.5701C75.4022 22.5334 75.5123 22.5334 75.6224 22.4967C75.7325 22.4599 75.8427 22.4232 75.9161 22.4232V37.0339C75.8427 37.0339 75.7325 37.0339 75.6591 37.0339C75.5857 37.0339 75.4756 36.9972 75.3654 36.9972C75.2553 36.9605 75.1452 36.9605 75.035 36.9605C74.9249 36.9605 74.8148 36.9605 74.7047 36.9605C74.6312 36.9605 74.5945 36.9605 74.5211 36.9605C74.4477 36.9605 74.411 36.9605 74.3743 36.9972C74.3009 36.9972 74.2641 36.9972 74.1907 36.9972C74.1173 36.9972 74.0806 36.9972 74.0072 36.9972C73.897 37.0339 73.7502 37.0339 73.6401 37.0339C73.5299 37.0339 73.3831 37.0339 73.273 37.0339V22.3498Z" fill="#4A4A49"/>
<path d="M80.7251 22.3498C80.7985 22.3865 80.8719 22.4232 80.9454 22.4599C81.0188 22.4967 81.1289 22.5334 81.2023 22.5334C81.3125 22.5701 81.3859 22.5701 81.496 22.5701C81.5694 22.5701 81.6796 22.5701 81.753 22.5701C81.7897 22.5701 81.7897 22.5701 81.8264 22.5701C81.8631 22.5701 81.8631 22.5701 81.8998 22.5701C81.9365 22.5701 81.9365 22.5701 81.9732 22.5701C82.01 22.5701 82.01 22.5701 82.0467 22.5701C82.1201 22.5701 82.1568 22.5701 82.2302 22.5701C82.3036 22.5701 82.3403 22.5701 82.4138 22.5701C82.4505 22.5701 82.4872 22.5701 82.5606 22.5701C82.634 22.5701 82.6707 22.5701 82.7442 22.5701C82.8543 22.5334 82.9644 22.5334 83.0745 22.4966C83.1847 22.4599 83.2948 22.4232 83.3682 22.4232V24.9562C83.4417 24.9195 83.4784 24.8461 83.5518 24.7727C83.6252 24.6993 83.6986 24.5891 83.772 24.479C83.8455 24.3689 83.9556 24.2954 84.029 24.1853C84.1024 24.0752 84.2126 23.9651 84.3227 23.8549C84.5062 23.6714 84.7632 23.4511 85.0202 23.2676C85.2772 23.084 85.5708 22.9005 85.9012 22.7169C86.2316 22.5334 86.5987 22.3865 87.0025 22.3131C87.4063 22.2397 87.8836 22.1663 88.3975 22.1663H88.4342C88.4709 22.1663 88.4709 22.1663 88.5077 22.1663C89.095 22.203 89.6457 22.3131 90.1596 22.5701C90.6736 22.827 91.1875 23.1574 91.6647 23.6347C92.142 24.1119 92.5091 24.736 92.766 25.5069C93.023 26.2778 93.1331 27.2323 93.1331 28.3703V37.0706C93.0964 37.0706 93.0597 37.0706 93.023 37.0706C92.9863 37.0706 92.9496 37.0706 92.9129 37.0339C92.8395 37.0339 92.8027 37.0339 92.766 37.0339C92.7293 37.0339 92.6926 37.0339 92.6559 37.0339C92.6192 37.0339 92.5825 37.0339 92.5091 37.0339C92.4724 37.0339 92.3989 37.0339 92.3622 37.0339C92.2888 36.9972 92.2521 36.9972 92.1787 36.9972C92.142 36.9972 92.0685 36.9972 92.0318 36.9972C91.9217 36.9972 91.8116 36.9972 91.7014 36.9972C91.5913 36.9972 91.4445 37.0339 91.3343 37.0339C91.2242 37.0706 91.0774 37.0706 90.9672 37.0706C90.8204 37.0706 90.6736 37.0706 90.5267 37.0706V28.2969C90.5267 27.5994 90.4533 27.012 90.2697 26.4614C90.0862 25.9474 89.8292 25.4702 89.4988 25.1398C89.1317 24.7727 88.7646 24.5157 88.3608 24.3322C87.957 24.1486 87.5532 24.0752 87.1494 24.0752C87.1127 24.0752 87.1127 24.0752 87.1127 24.0752H87.076C87.0392 24.0752 87.0392 24.0752 87.0392 24.0752H87.0025C86.562 24.1119 86.1215 24.222 85.7177 24.4423C85.3139 24.6626 84.9101 24.9562 84.543 25.36C84.1759 25.7271 83.8822 26.2411 83.6986 26.7917C83.5151 27.3791 83.4416 28.0399 83.4416 28.8108V37.0706C83.3315 37.0706 83.2214 37.0706 83.1113 37.0706C83.0011 37.0706 82.891 37.0339 82.7809 37.0339C82.6707 36.9972 82.5973 36.9972 82.4872 36.9972C82.3771 36.9972 82.3036 36.9972 82.1935 36.9972C82.0834 36.9972 81.9732 36.9972 81.8631 36.9972C81.753 36.9972 81.6429 37.0339 81.5327 37.0339C81.4593 37.0339 81.4226 37.0339 81.3492 37.0339C81.2758 37.0339 81.239 37.0339 81.2023 37.0339C81.1289 37.0706 81.0922 37.0706 81.0188 37.0706C80.9454 37.0706 80.9086 37.0706 80.8352 37.0706V22.3498H80.7251Z" fill="#4A4A49"/>
<path d="M97.208 24.0018H95.0788C95.1155 24.0385 95.1155 24.0018 95.1155 24.0018C95.1155 23.9651 95.1522 23.9284 95.1522 23.8917C95.1889 23.855 95.1889 23.8183 95.1889 23.7816C95.1889 23.7449 95.2256 23.7081 95.2256 23.6347C95.2256 23.598 95.2256 23.598 95.2256 23.5613C95.2256 23.5246 95.2256 23.5246 95.2256 23.4879C95.2256 23.4512 95.2256 23.4145 95.2256 23.4145C95.2256 23.3777 95.2256 23.3778 95.1889 23.341C95.1889 23.3043 95.1889 23.3043 95.1889 23.2676C95.1889 23.2309 95.1889 23.2309 95.1889 23.1942C95.1522 23.1208 95.1522 23.0841 95.1522 23.0107C95.1522 22.9739 95.1155 22.9372 95.0788 22.9005L97.208 22.8271C97.4282 21.2486 97.7219 19.927 98.089 18.8624C98.4561 17.7611 98.8967 16.9535 99.4473 16.3294C99.998 15.742 100.549 15.2648 101.136 14.9711C101.723 14.6774 102.311 14.4939 102.935 14.4939C102.971 14.4939 103.008 14.4939 103.045 14.4939C103.082 14.4939 103.118 14.4939 103.155 14.4939C103.192 14.5306 103.192 14.5306 103.228 14.5306C103.265 14.5306 103.302 14.5306 103.339 14.5306C103.412 14.5306 103.485 14.5306 103.559 14.5306C103.632 14.5306 103.706 14.5673 103.779 14.5673C103.706 14.8243 103.669 15.0445 103.632 15.2281C103.596 15.4484 103.559 15.6319 103.559 15.8155C103.522 15.999 103.522 16.2193 103.522 16.4028C103.522 16.5864 103.522 16.7699 103.522 16.9535L103.265 17.137C103.155 17.1003 103.008 17.1003 102.898 17.0269C102.788 16.9902 102.641 16.9168 102.531 16.8433C102.384 16.8066 102.237 16.7699 102.09 16.7332C101.944 16.6965 101.76 16.6965 101.576 16.6965C101.063 16.6965 100.659 16.7699 100.328 16.9535C99.998 17.1003 99.7777 17.3573 99.5941 17.6877C99.4473 18.0181 99.3005 18.3485 99.227 18.7156C99.1536 19.0827 99.1169 19.4498 99.1169 19.8536C99.1169 19.8903 99.1169 19.8903 99.1169 19.927C99.1169 19.9637 99.1169 19.9637 99.1169 20.0004C99.1169 20.0371 99.1169 20.0371 99.1169 20.0738C99.1169 20.1106 99.1169 20.1105 99.1169 20.1473C99.1169 20.184 99.1169 20.184 99.1169 20.2207C99.1169 20.2574 99.1169 20.2574 99.1169 20.2941C99.1169 20.4409 99.1169 20.5878 99.1169 20.6979C99.1169 20.8448 99.1536 20.9916 99.1536 21.1017C99.1903 21.2486 99.1903 21.3954 99.227 21.5055C99.2637 21.6524 99.2638 21.7625 99.3005 21.9094C99.3005 21.9828 99.3005 22.0929 99.3005 22.1663C99.3005 22.2397 99.3372 22.3499 99.3372 22.4233C99.3372 22.4967 99.3372 22.5701 99.3372 22.6803C99.3372 22.7537 99.3739 22.8271 99.3739 22.9005L102.715 22.8271C102.678 22.8638 102.678 22.9005 102.678 22.9005C102.678 22.9372 102.641 22.9372 102.641 22.9372C102.604 22.9739 102.604 22.9739 102.604 23.0107C102.604 23.0474 102.604 23.0474 102.604 23.0841C102.568 23.1208 102.568 23.1575 102.568 23.2309C102.568 23.2676 102.568 23.341 102.568 23.3778C102.568 23.4512 102.568 23.4879 102.568 23.5613C102.568 23.6347 102.568 23.6714 102.604 23.7449C102.641 23.8183 102.641 23.855 102.678 23.9284C102.715 24.0018 102.751 24.0385 102.751 24.112L99.4106 24.0385V37.0706C99.3739 37.0706 99.3372 37.0706 99.3005 37.0706C99.2638 37.0706 99.227 37.0706 99.1903 37.0339C99.1169 37.0339 99.0802 37.0339 99.0435 37.0339C99.0068 37.0339 98.9701 37.0339 98.9334 37.0339C98.8599 36.9972 98.7498 36.9972 98.6764 36.9972C98.603 36.9972 98.4928 36.9972 98.3827 36.9972C98.2726 36.9972 98.1625 36.9972 98.0523 36.9972C97.9422 36.9972 97.8321 37.0339 97.7219 37.0339C97.6118 37.0706 97.5017 37.0706 97.3915 37.0706C97.2814 37.0706 97.1713 37.0706 97.0611 37.0706V24.0018H97.208Z" fill="#4A4A49"/>
<path d="M104.77 16.4762C104.844 16.2926 104.954 16.1091 105.137 15.9623C105.284 15.8154 105.468 15.7053 105.651 15.6319C105.835 15.5584 106.018 15.5217 106.239 15.5217C106.459 15.5217 106.679 15.5584 106.863 15.6319C107.046 15.7053 107.267 15.8154 107.45 15.9623C107.634 16.1091 107.78 16.2926 107.854 16.4762C107.927 16.6965 108.001 16.9167 108.001 17.2104C107.964 17.5041 107.927 17.7243 107.817 17.9446C107.707 18.1649 107.56 18.3484 107.413 18.4585C107.267 18.6054 107.083 18.7155 106.899 18.7889C106.716 18.8624 106.532 18.8991 106.312 18.8991C106.129 18.8991 105.908 18.8624 105.725 18.7889C105.541 18.7155 105.358 18.6054 105.211 18.4585C105.027 18.3117 104.917 18.1281 104.807 17.9079C104.734 17.6876 104.697 17.4674 104.697 17.2104V17.137C104.66 16.88 104.697 16.6597 104.77 16.4762ZM104.917 22.3498C104.954 22.3865 104.954 22.4232 104.991 22.4232C105.027 22.4232 105.027 22.4232 105.064 22.4232C105.064 22.46 105.064 22.46 105.101 22.46C105.137 22.46 105.137 22.46 105.174 22.46C105.211 22.4967 105.247 22.4967 105.284 22.4967C105.321 22.4967 105.358 22.4967 105.394 22.4967C105.468 22.5334 105.541 22.5334 105.615 22.5701C105.688 22.6068 105.761 22.6068 105.835 22.6068C105.908 22.6068 105.982 22.6068 106.055 22.6068C106.129 22.6068 106.202 22.6068 106.275 22.6068C106.386 22.6068 106.496 22.6068 106.606 22.6068C106.716 22.6068 106.826 22.6068 106.936 22.5701C107.046 22.5334 107.156 22.5334 107.267 22.4967C107.377 22.4599 107.487 22.4232 107.56 22.4232V37.0339C107.487 37.0339 107.377 37.0339 107.303 37.0339C107.23 37.0339 107.12 36.9972 107.01 36.9972C106.899 36.9605 106.789 36.9605 106.679 36.9605C106.569 36.9605 106.459 36.9605 106.349 36.9605C106.275 36.9605 106.239 36.9605 106.165 36.9605C106.092 36.9605 106.055 36.9605 106.018 36.9972C105.945 36.9972 105.908 36.9972 105.835 36.9972C105.761 36.9972 105.725 36.9972 105.651 36.9972C105.541 37.0339 105.394 37.0339 105.284 37.0339C105.174 37.0339 105.027 37.0339 104.917 37.0339V22.3498Z" fill="#4A4A49"/>
<path d="M112.369 22.3498C112.443 22.3865 112.516 22.4232 112.59 22.4599C112.663 22.4967 112.773 22.5334 112.846 22.5334C112.957 22.5701 113.03 22.5701 113.14 22.5701C113.214 22.5701 113.324 22.5701 113.397 22.5701C113.434 22.5701 113.434 22.5701 113.471 22.5701C113.507 22.5701 113.507 22.5701 113.544 22.5701C113.581 22.5701 113.581 22.5701 113.617 22.5701C113.654 22.5701 113.654 22.5701 113.691 22.5701C113.764 22.5701 113.801 22.5701 113.874 22.5701C113.948 22.5701 113.985 22.5701 114.058 22.5701C114.095 22.5701 114.131 22.5701 114.205 22.5701C114.278 22.5701 114.315 22.5701 114.388 22.5701C114.498 22.5334 114.609 22.5334 114.719 22.4966C114.829 22.4599 114.939 22.4232 115.012 22.4232V24.9562C115.086 24.9195 115.123 24.8461 115.196 24.7727C115.269 24.6993 115.343 24.5891 115.416 24.479C115.49 24.3689 115.6 24.2954 115.673 24.1853C115.747 24.0752 115.857 23.9651 115.967 23.8549C116.15 23.6714 116.407 23.4511 116.664 23.2676C116.921 23.084 117.215 22.9005 117.545 22.7169C117.876 22.5334 118.243 22.3865 118.647 22.3131C119.051 22.2397 119.528 22.1663 120.042 22.1663H120.078C120.115 22.1663 120.115 22.1663 120.152 22.1663C120.739 22.203 121.29 22.3131 121.804 22.5701C122.318 22.827 122.832 23.1574 123.309 23.6347C123.786 24.1119 124.153 24.736 124.41 25.5069C124.667 26.2778 124.777 27.2323 124.777 28.3703V37.0706C124.741 37.0706 124.704 37.0706 124.667 37.0706C124.63 37.0706 124.594 37.0706 124.557 37.0339C124.484 37.0339 124.447 37.0339 124.41 37.0339C124.373 37.0339 124.337 37.0339 124.3 37.0339C124.263 37.0339 124.227 37.0339 124.153 37.0339C124.117 37.0339 124.043 37.0339 124.006 37.0339C123.933 36.9972 123.896 36.9972 123.823 36.9972C123.786 36.9972 123.713 36.9972 123.676 36.9972C123.566 36.9972 123.456 36.9972 123.346 36.9972C123.235 36.9972 123.089 37.0339 122.978 37.0339C122.868 37.0706 122.722 37.0706 122.611 37.0706C122.465 37.0706 122.318 37.0706 122.171 37.0706V28.2969C122.171 27.5994 122.097 27.012 121.914 26.4614C121.73 25.9474 121.473 25.4702 121.143 25.1398C120.776 24.7727 120.409 24.5157 120.005 24.3322C119.601 24.1486 119.197 24.0752 118.794 24.0752C118.757 24.0752 118.757 24.0752 118.757 24.0752H118.72C118.683 24.0752 118.683 24.0752 118.683 24.0752H118.647C118.206 24.1119 117.766 24.222 117.362 24.4423C116.958 24.6626 116.554 24.9562 116.187 25.36C115.82 25.7271 115.526 26.2411 115.343 26.7917C115.159 27.3791 115.086 28.0399 115.086 28.8108V37.0706C114.976 37.0706 114.866 37.0706 114.755 37.0706C114.645 37.0706 114.535 37.0339 114.425 37.0339C114.315 36.9972 114.241 36.9972 114.131 36.9972C114.021 36.9972 113.948 36.9972 113.838 36.9972C113.728 36.9972 113.617 36.9972 113.507 36.9972C113.397 36.9972 113.287 37.0339 113.177 37.0339C113.103 37.0339 113.067 37.0339 112.993 37.0339C112.92 37.0339 112.883 37.0339 112.846 37.0339C112.773 37.0706 112.736 37.0706 112.663 37.0706C112.59 37.0706 112.553 37.0706 112.479 37.0706V22.3498H112.369Z" fill="#4A4A49"/>
<path d="M128.705 16.4762C128.779 16.2926 128.889 16.1091 129.072 15.9623C129.219 15.8154 129.403 15.7053 129.586 15.6319C129.77 15.5584 129.953 15.5217 130.174 15.5217C130.394 15.5217 130.614 15.5584 130.798 15.6319C130.981 15.7053 131.202 15.8154 131.385 15.9623C131.569 16.1091 131.716 16.2926 131.789 16.4762C131.862 16.6965 131.936 16.9167 131.936 17.2104C131.899 17.5041 131.862 17.7243 131.752 17.9446C131.642 18.1649 131.495 18.3484 131.348 18.4585C131.202 18.6054 131.018 18.7155 130.835 18.7889C130.651 18.8624 130.467 18.8991 130.247 18.8991C130.064 18.8991 129.843 18.8624 129.66 18.7889C129.476 18.7155 129.293 18.6054 129.146 18.4585C128.962 18.3117 128.852 18.1281 128.742 17.9079C128.669 17.6876 128.632 17.4674 128.632 17.2104V17.137C128.595 16.88 128.632 16.6597 128.705 16.4762ZM128.815 22.3498C128.852 22.3865 128.852 22.4232 128.889 22.4232C128.926 22.4232 128.926 22.4232 128.962 22.4232C128.962 22.46 128.962 22.46 128.999 22.46C129.036 22.46 129.036 22.46 129.072 22.46C129.109 22.4967 129.146 22.4967 129.183 22.4967C129.219 22.4967 129.256 22.4967 129.293 22.4967C129.366 22.5334 129.44 22.5334 129.513 22.5701C129.586 22.6068 129.66 22.6068 129.733 22.6068C129.807 22.6068 129.88 22.6068 129.953 22.6068C130.027 22.6068 130.1 22.6068 130.174 22.6068C130.284 22.6068 130.394 22.6068 130.504 22.6068C130.614 22.6068 130.724 22.6068 130.835 22.5701C130.945 22.5334 131.055 22.5334 131.165 22.4967C131.275 22.4599 131.385 22.4232 131.459 22.4232V37.0339C131.385 37.0339 131.275 37.0339 131.202 37.0339C131.128 37.0339 131.018 36.9972 130.908 36.9972C130.798 36.9605 130.688 36.9605 130.578 36.9605C130.467 36.9605 130.357 36.9605 130.247 36.9605C130.174 36.9605 130.137 36.9605 130.064 36.9605C129.99 36.9605 129.953 36.9605 129.917 36.9972C129.843 36.9972 129.807 36.9972 129.733 36.9972C129.66 36.9972 129.623 36.9972 129.55 36.9972C129.44 37.0339 129.293 37.0339 129.183 37.0339C129.072 37.0339 128.926 37.0339 128.815 37.0339V22.3498Z" fill="#4A4A49"/>
<path d="M136.084 22.7536C136.157 22.7903 136.268 22.8271 136.378 22.8271C136.488 22.8638 136.561 22.8638 136.671 22.8638C136.782 22.8638 136.855 22.8638 136.965 22.8638C137.075 22.8638 137.185 22.8638 137.295 22.8638C137.406 22.8638 137.516 22.8638 137.626 22.8271C137.663 22.8271 137.699 22.8271 137.773 22.8271C137.809 22.8271 137.883 22.7904 137.956 22.7904C137.993 22.7536 138.03 22.7536 138.103 22.7536C138.14 22.7536 138.213 22.7169 138.25 22.7169V25.7272C138.433 25.2132 138.654 24.7727 138.947 24.4056C139.241 24.0018 139.572 23.7081 139.939 23.4511C140.306 23.1942 140.673 23.0106 141.077 22.8638C141.48 22.7169 141.848 22.6068 142.251 22.5334C142.288 22.5334 142.325 22.5334 142.361 22.5334C142.398 22.5334 142.435 22.5334 142.472 22.4967C142.508 22.4967 142.545 22.4967 142.582 22.4967C142.618 22.4967 142.655 22.4967 142.692 22.4967C142.729 22.4967 142.765 22.4967 142.802 22.4967C142.839 22.4967 142.875 22.4967 142.912 22.46C142.949 22.46 142.986 22.46 143.022 22.46C143.059 22.46 143.096 22.46 143.132 22.46C144.013 22.46 144.821 22.6068 145.555 22.9005C146.289 23.1942 146.95 23.6347 147.538 24.222C148.125 24.8094 148.565 25.5803 148.859 26.5715C149.153 27.5627 149.3 28.7007 149.3 30.0957C149.3 31.0134 149.19 31.8945 148.933 32.7388C148.676 33.5831 148.309 34.3541 147.758 35.125C147.244 35.8959 146.62 36.4465 145.849 36.8136C145.078 37.1807 144.16 37.3643 143.096 37.3643C143.059 37.3643 143.059 37.3643 143.022 37.3643C142.986 37.3643 142.986 37.3643 142.949 37.3643C142.912 37.3643 142.912 37.3643 142.912 37.3643H142.875C142.839 37.3643 142.839 37.3643 142.802 37.3643C142.765 37.3643 142.765 37.3643 142.729 37.3643C142.692 37.3643 142.692 37.3643 142.692 37.3643H142.655C141.994 37.3643 141.444 37.2909 140.966 37.1807C140.489 37.0339 140.049 36.8503 139.718 36.5199C139.388 36.2263 139.058 35.9326 138.801 35.6022C138.544 35.2718 138.323 34.9414 138.177 34.5743V44.9633C138.14 44.9266 138.103 44.9266 138.03 44.9266C137.993 44.9266 137.92 44.8899 137.883 44.8899C137.809 44.8531 137.773 44.8532 137.699 44.8532C137.663 44.8532 137.589 44.8532 137.552 44.8532C137.479 44.8164 137.369 44.8164 137.259 44.8164C137.149 44.8164 137.038 44.8164 136.928 44.8164C136.818 44.8164 136.708 44.8164 136.598 44.8164C136.488 44.8164 136.378 44.8164 136.268 44.8532C136.157 44.8899 136.084 44.8899 135.974 44.9266C135.9 44.9633 135.79 44.9633 135.68 45V22.7169C135.9 22.6802 136.011 22.7169 136.084 22.7536ZM138.177 29.5817C138.177 29.6184 138.177 29.6551 138.177 29.6551C138.177 29.6919 138.177 29.6919 138.177 29.7286C138.177 29.7653 138.177 29.7653 138.177 29.802C138.177 29.9488 138.177 30.1324 138.177 30.3526C138.177 30.5729 138.177 30.7932 138.213 31.0134C138.213 31.2704 138.25 31.5274 138.287 31.7843C138.323 32.0413 138.397 32.2983 138.47 32.592C138.58 32.9591 138.727 33.3262 138.911 33.6933C139.094 34.0237 139.351 34.3908 139.608 34.7212C139.902 35.0515 140.232 35.3085 140.673 35.5288C141.113 35.749 141.627 35.8959 142.215 36.006C142.251 36.006 142.251 36.006 142.251 36.006H142.288C142.325 36.006 142.325 36.006 142.361 36.006C142.398 36.006 142.398 36.006 142.435 36.006C142.435 36.0427 142.435 36.0427 142.472 36.0427C142.508 36.0427 142.508 36.0427 142.545 36.0427C142.582 36.0427 142.582 36.0427 142.582 36.0427H142.618C143.206 36.0427 143.72 35.8959 144.197 35.6389C144.674 35.3819 145.078 35.0148 145.408 34.5009C145.739 33.9869 145.996 33.3629 146.179 32.6287C146.363 31.8945 146.436 31.0501 146.436 30.0957C146.436 30.0222 146.436 29.9488 146.436 29.8754C146.436 29.802 146.436 29.7286 146.436 29.6551C146.436 29.6184 146.436 29.5817 146.436 29.545C146.436 29.5083 146.436 29.4716 146.436 29.4349C146.4 29.3982 146.4 29.3615 146.4 29.3248C146.4 29.288 146.4 29.2513 146.4 29.2146C146.363 28.5171 146.289 27.8931 146.143 27.2323C145.996 26.6082 145.812 26.0208 145.555 25.4335C145.298 24.8461 144.931 24.4056 144.454 24.1486C143.977 23.8549 143.426 23.7448 142.692 23.7448C142.655 23.7448 142.655 23.7448 142.655 23.7448H142.618C142.582 23.7448 142.582 23.7448 142.545 23.7448C142.508 23.7448 142.508 23.7448 142.472 23.7448C142.435 23.7448 142.435 23.7448 142.435 23.7448H142.398C141.884 23.7448 141.407 23.8549 140.966 24.0752C140.526 24.2955 140.122 24.6259 139.755 25.1031C139.388 25.5436 139.094 26.1677 138.801 26.9386C138.544 27.7095 138.323 28.6273 138.14 29.6919V29.6184C138.177 29.5083 138.177 29.545 138.177 29.5817Z" fill="#4A4A49"/>
<path d="M151.759 32.4818C151.906 32.078 152.126 31.7109 152.383 31.3805C152.677 31.0501 153.044 30.7197 153.558 30.4627C154.035 30.2058 154.659 29.9488 155.357 29.802L159.138 29.031C159.358 28.9943 159.542 28.9576 159.725 28.8475C159.909 28.7741 160.019 28.6272 160.129 28.5171C160.239 28.3703 160.313 28.1867 160.349 28.0031C160.386 27.8196 160.423 27.6361 160.423 27.4158C160.423 27.3791 160.423 27.3424 160.423 27.3057C160.423 27.2689 160.423 27.2322 160.423 27.1955C160.386 27.1588 160.386 27.1221 160.386 27.0854C160.386 27.0487 160.386 27.012 160.386 26.9753C160.349 26.9018 160.349 26.8284 160.349 26.7183C160.349 26.6449 160.313 26.5715 160.276 26.4613C160.166 26.1309 160.019 25.8373 159.835 25.5436C159.652 25.2499 159.395 24.9562 159.101 24.6992C158.808 24.4056 158.514 24.222 158.147 24.0752C157.78 23.9283 157.413 23.8549 156.972 23.8549C156.935 23.8549 156.935 23.8549 156.935 23.8549C156.935 23.8549 156.899 23.8549 156.862 23.8549C156.825 23.8549 156.825 23.8549 156.789 23.8549C156.752 23.8549 156.752 23.8549 156.715 23.8549C156.458 23.8549 156.238 23.8916 156.054 23.9283C155.871 23.965 155.651 24.0385 155.467 24.1119C155.283 24.1853 155.1 24.2954 154.916 24.3688C154.733 24.479 154.549 24.5891 154.366 24.7359C154.256 24.8094 154.182 24.9195 154.072 24.9929C153.962 25.1031 153.888 25.1765 153.778 25.2866C153.668 25.3967 153.558 25.5069 153.448 25.617C153.338 25.7271 153.228 25.874 153.118 25.9841L152.677 25.9107V24.2587C152.714 24.2587 152.75 24.2587 152.824 24.222C152.897 24.1853 152.934 24.1853 153.007 24.1486C153.081 24.1119 153.118 24.0752 153.191 24.0385C153.264 24.0017 153.301 23.965 153.375 23.9283C153.668 23.7815 153.962 23.6346 154.256 23.4878C154.549 23.341 154.916 23.2308 155.247 23.084C155.614 22.9739 155.981 22.8637 156.385 22.7903C156.789 22.7169 157.192 22.6802 157.633 22.6802C158.514 22.6802 159.285 22.7903 159.946 22.9739C160.606 23.1574 161.157 23.4511 161.561 23.8182C161.965 24.1853 162.295 24.6992 162.515 25.36C162.736 25.9841 162.846 26.755 162.846 27.636V35.1616C162.846 35.3452 162.846 35.5287 162.882 35.6389C162.919 35.749 162.956 35.8224 163.066 35.8958C163.139 35.9693 163.25 36.006 163.323 36.0427C163.433 36.0794 163.543 36.0794 163.653 36.0794C163.727 36.0794 163.763 36.0794 163.837 36.0794C163.91 36.0794 163.984 36.0794 164.057 36.0427C164.131 36.0427 164.204 36.0427 164.277 36.006C164.351 35.9693 164.424 35.9693 164.498 35.9325V36.5566C164.388 36.6668 164.277 36.7769 164.167 36.8503C164.057 36.9237 163.947 36.9604 163.837 37.0338C163.763 37.0706 163.727 37.0706 163.653 37.0706C163.58 37.0706 163.543 37.0706 163.47 37.1073C163.396 37.144 163.323 37.144 163.25 37.144C163.176 37.144 163.139 37.144 163.066 37.144C163.029 37.144 163.029 37.144 163.029 37.144C163.029 37.144 163.029 37.144 163.029 37.1807C162.993 37.1807 162.993 37.1807 162.993 37.1807H162.956C162.919 37.1807 162.919 37.1807 162.882 37.1807C162.846 37.1807 162.846 37.1807 162.846 37.1807H162.809C162.515 37.1807 162.222 37.144 161.928 37.0706C161.634 36.9971 161.377 36.887 161.157 36.7402C160.9 36.5933 160.68 36.3731 160.57 36.1528C160.423 35.9325 160.349 35.6756 160.313 35.4186C160.239 35.492 160.203 35.5287 160.129 35.5654C160.092 35.6022 160.019 35.6389 159.982 35.6756C159.909 35.7123 159.872 35.749 159.799 35.7857C159.762 35.8224 159.689 35.8591 159.652 35.8958C159.285 36.1895 158.954 36.4098 158.587 36.63C158.257 36.8136 157.89 36.9971 157.559 37.0706C157.229 37.1807 156.899 37.2908 156.568 37.3275C156.238 37.401 155.908 37.401 155.614 37.401C155.026 37.401 154.476 37.3275 153.962 37.144C153.485 36.9604 153.007 36.7035 152.64 36.3731C152.273 36.006 151.98 35.6022 151.759 35.1616C151.576 34.7211 151.466 34.2072 151.466 33.6932V33.6198C151.539 33.2894 151.612 32.8856 151.759 32.4818ZM160.349 29.9488C159.248 30.0956 158.294 30.2425 157.486 30.426C156.678 30.6096 156.054 30.8298 155.577 31.1235C155.1 31.3805 154.733 31.7109 154.476 32.078C154.219 32.4451 154.109 32.9223 154.109 33.4363C154.109 33.5097 154.109 33.5831 154.109 33.6565C154.109 33.7299 154.109 33.8034 154.145 33.8401C154.145 33.9135 154.145 33.9502 154.145 34.0236C154.145 34.097 154.182 34.1705 154.182 34.2439C154.182 34.2806 154.182 34.2806 154.182 34.2806C154.182 34.2806 154.182 34.3173 154.219 34.3173C154.219 34.354 154.219 34.354 154.219 34.354V34.3907C154.219 34.4274 154.219 34.4274 154.219 34.4274C154.219 34.4274 154.219 34.4274 154.256 34.4274C154.256 34.4641 154.256 34.4641 154.256 34.4641L154.292 34.5009C154.402 34.6844 154.513 34.868 154.659 35.0148C154.806 35.1616 154.99 35.3452 155.247 35.492C155.504 35.6389 155.761 35.749 156.018 35.8224C156.275 35.8958 156.568 35.9325 156.899 35.9325C157.046 35.9325 157.229 35.9325 157.376 35.8958C157.523 35.8591 157.67 35.8591 157.853 35.8224C158 35.7857 158.184 35.7123 158.33 35.6389C158.477 35.5654 158.661 35.492 158.808 35.3819C158.918 35.3085 159.065 35.1983 159.175 35.1249C159.322 35.0148 159.432 34.9047 159.579 34.7945C159.652 34.7211 159.689 34.6844 159.762 34.611C159.835 34.5376 159.909 34.4641 159.982 34.3907C160.056 34.3173 160.092 34.2439 160.166 34.1337C160.239 34.0603 160.276 33.9869 160.349 33.8768V33.8034V29.9488Z" fill="#4A4A49"/>
<path d="M166.37 27.1588C166.7 26.2411 167.214 25.4334 167.875 24.7727C168.536 24.0752 169.38 23.5612 170.371 23.1941C171.399 22.827 172.574 22.6802 173.932 22.6802C174.299 22.6802 174.63 22.6802 174.923 22.7169C175.217 22.7536 175.511 22.7903 175.768 22.8637C176.025 22.9371 176.245 22.9739 176.502 23.0473C176.759 23.1207 176.979 23.1941 177.236 23.3043C177.273 23.341 177.31 23.341 177.383 23.3777C177.42 23.4144 177.493 23.4144 177.566 23.4511C177.603 23.4878 177.64 23.5245 177.713 23.5245C177.75 23.5612 177.823 23.5612 177.86 23.5979C177.97 23.6714 178.044 23.7081 178.154 23.7815C178.264 23.8182 178.374 23.8916 178.484 23.9283L178.007 26.0208H177.53C177.273 25.6904 177.016 25.3967 176.759 25.1398C176.502 24.8828 176.208 24.6625 175.878 24.479C175.547 24.2954 175.18 24.1486 174.777 24.0752C174.373 24.0017 173.932 23.9283 173.492 23.9283C172.721 23.9283 172.06 24.0752 171.473 24.4056C170.885 24.7359 170.371 25.2132 169.967 25.8373C169.564 26.4613 169.27 27.1221 169.05 27.8563C168.866 28.5538 168.756 29.288 168.756 30.0589C168.756 30.8298 168.866 31.6007 169.086 32.2982C169.307 32.9957 169.6 33.6932 170.041 34.3173C170.445 34.9781 170.995 35.4553 171.656 35.749C172.317 36.0794 173.088 36.2262 173.969 36.2262C174.446 36.2262 174.85 36.1895 175.217 36.1161C175.584 36.0427 175.951 35.9325 176.245 35.7857C176.575 35.6389 176.869 35.4186 177.163 35.1983C177.456 34.9781 177.75 34.7211 178.08 34.4641C178.08 34.4274 178.08 34.4274 178.08 34.4274L178.117 34.3907C178.154 34.3907 178.154 34.3907 178.154 34.3907L178.191 34.354L178.448 34.5009L178.191 35.9325C177.86 36.2262 177.53 36.4465 177.126 36.6667C176.759 36.8503 176.355 37.0339 175.951 37.1073C175.547 37.2174 175.107 37.2908 174.703 37.3642C174.299 37.4377 173.859 37.4744 173.455 37.4744C173.418 37.4744 173.418 37.4744 173.418 37.4744H173.382C173.345 37.4744 173.345 37.4744 173.345 37.4744H173.308C172.39 37.4377 171.509 37.2908 170.628 36.9971C169.784 36.7035 168.976 36.2629 168.205 35.6756C167.434 35.0882 166.847 34.3907 166.443 33.5097C166.076 32.6653 165.856 31.6742 165.856 30.5729C165.856 30.5361 165.856 30.5362 165.856 30.4994C165.856 30.4627 165.856 30.4627 165.856 30.4627V30.426C165.856 30.3893 165.856 30.3893 165.856 30.3526C165.856 30.3159 165.856 30.3159 165.856 30.3159V30.2792V30.2058C165.893 29.0677 166.039 28.0766 166.37 27.1588Z" fill="#4A4A49"/>
<path d="M181.421 13.833C181.494 13.8697 181.568 13.9064 181.641 13.9431C181.715 13.9798 181.825 14.0166 181.898 14.0166C182.008 14.0533 182.082 14.0533 182.192 14.0533C182.265 14.0533 182.375 14.0533 182.449 14.0533C182.486 14.0533 182.486 14.0533 182.522 14.0533C182.559 14.0533 182.559 14.0533 182.596 14.0533C182.632 14.0533 182.632 14.0533 182.669 14.0533C182.706 14.0533 182.706 14.0533 182.743 14.0533C182.816 14.0533 182.853 14.0533 182.926 14.0533C183 14.0533 183.036 14.0533 183.11 14.0533C183.146 14.0533 183.183 14.0533 183.257 14.0533C183.33 14.0533 183.367 14.0533 183.44 14.0533C183.55 14.0165 183.66 14.0166 183.77 13.9798C183.881 13.9431 183.991 13.9431 184.064 13.9064V28.3335C184.064 28.3702 184.064 28.4069 184.064 28.4436V28.4804C184.064 28.5538 184.064 28.5905 184.064 28.6272C184.064 28.6639 184.064 28.7006 184.101 28.7373C184.138 28.774 184.138 28.774 184.174 28.774C184.211 28.774 184.248 28.774 184.284 28.774C184.431 28.774 184.615 28.7006 184.872 28.5538C185.129 28.4069 185.422 28.15 185.79 27.8563C186.12 27.5626 186.487 27.2322 186.891 26.8651C187.258 26.498 187.662 26.1309 188.066 25.6904C188.102 25.6537 188.139 25.617 188.176 25.5435C188.212 25.5068 188.249 25.4334 188.286 25.36C188.323 25.3233 188.359 25.2866 188.433 25.2132C188.469 25.1764 188.543 25.103 188.616 25.0296C188.726 24.9195 188.836 24.7726 188.947 24.6625C189.057 24.5524 189.167 24.4055 189.277 24.2954C189.387 24.1853 189.497 24.0751 189.607 23.965C189.718 23.8549 189.828 23.708 189.938 23.5979C190.158 23.3776 190.342 23.1574 190.525 22.9738C190.709 22.7903 190.892 22.57 191.039 22.3865C191.113 22.4232 191.149 22.4232 191.223 22.4599C191.296 22.4966 191.369 22.4966 191.443 22.5333C191.516 22.57 191.59 22.57 191.663 22.57C191.737 22.57 191.81 22.57 191.883 22.57C191.92 22.57 191.92 22.57 191.92 22.57H191.957C191.994 22.57 191.994 22.57 192.03 22.57C192.067 22.57 192.067 22.57 192.067 22.57H192.104C192.14 22.57 192.14 22.57 192.177 22.57C192.287 22.57 192.397 22.57 192.507 22.57C192.618 22.57 192.728 22.57 192.838 22.5333C192.948 22.4966 193.058 22.4966 193.168 22.4599C193.278 22.4232 193.389 22.3865 193.462 22.3865V22.57L187.038 28.4804L193.902 36.5199V36.9971C193.829 36.9971 193.792 36.9971 193.719 36.9971C193.646 36.9971 193.609 36.9971 193.535 36.9604C193.499 36.9604 193.499 36.9604 193.462 36.9604C193.425 36.9604 193.389 36.9604 193.389 36.9237C193.352 36.9237 193.315 36.9237 193.315 36.9237C193.278 36.9237 193.278 36.9237 193.242 36.9237C193.168 36.9237 193.132 36.9237 193.058 36.9237C192.985 36.9237 192.948 36.9237 192.875 36.9237C192.838 36.9237 192.838 36.9237 192.801 36.9237C192.764 36.9237 192.728 36.9237 192.728 36.887C192.691 36.887 192.654 36.887 192.654 36.887C192.618 36.887 192.618 36.887 192.581 36.887C192.471 36.887 192.324 36.887 192.214 36.887C192.104 36.887 191.957 36.9237 191.847 36.9237C191.737 36.9604 191.59 36.9604 191.48 36.9604C191.369 36.9604 191.223 36.9604 191.113 36.9604C190.966 36.8136 190.782 36.6667 190.635 36.5199C190.488 36.373 190.342 36.1895 190.158 36.0059C190.011 35.8224 189.864 35.6388 189.718 35.4553C189.571 35.2717 189.424 35.0882 189.24 34.9046C188.69 34.2439 188.139 33.6198 187.662 32.9957C187.185 32.4083 186.707 31.821 186.267 31.2336C185.826 30.683 185.459 30.2792 185.165 29.9855C184.872 29.6918 184.652 29.545 184.468 29.545C184.431 29.545 184.395 29.545 184.358 29.5817C184.321 29.6184 184.284 29.6184 184.248 29.6551C184.211 29.6918 184.211 29.7652 184.211 29.8386C184.211 29.912 184.211 30.0222 184.211 30.0956V36.887C184.138 36.887 184.027 36.887 183.954 36.887C183.881 36.887 183.77 36.8503 183.66 36.8503C183.55 36.8136 183.44 36.8136 183.33 36.8136C183.22 36.8136 183.11 36.8136 183 36.8136C182.926 36.8136 182.889 36.8136 182.816 36.8136C182.743 36.8136 182.706 36.8136 182.669 36.8503C182.596 36.8503 182.559 36.8503 182.486 36.8503C182.412 36.8503 182.375 36.8503 182.302 36.8503C182.192 36.887 182.045 36.887 181.935 36.887C181.825 36.887 181.678 36.887 181.568 36.887V13.833H181.421Z" fill="#4A4A49"/>
<path fill-rule="evenodd" clip-rule="evenodd" d="M6.90094 29.1779C6.90094 29.1779 9.25039 33.9503 16.7026 26.6082C16.776 26.5348 20.5571 22.2764 21.7686 20.8447C22.98 19.413 32.5981 6.89488 43.6478 2.12256C43.6478 2.12256 47.9429 3.04031 50.1822 5.79357C52.1646 8.21644 54.5874 11.5938 53.8899 16.1458C53.8899 16.1458 54.257 7.77593 42.8769 7.95948C42.8769 7.95948 38.0679 8.17973 34.0298 12.0343C29.9916 15.8889 25.4763 21.5422 22.7964 25.1765C22.7964 25.1765 18.6849 30.7565 15.8215 32.7388C15.8215 32.7021 8.25922 34.7946 6.90094 29.1779Z" fill="url(#paint0_linear_52_1265)"/>
<path d="M8.03897 31.0501C9.17699 32.2983 11.453 33.5831 15.8582 32.6287C12.7012 35.0515 8.55291 37.3643 5.249 37.1073C-2.57026 36.4465 -1.76264 27.1221 8.40608 23.2309C22.1357 18.018 47.6492 31.4172 53.1925 18.6788C55.909 12.4381 51.0266 3.59094 43.5377 2.12253C67.1423 -8.92722 74.154 26.3145 55.3584 35.4921C40.3439 42.8341 18.7583 20.551 7.85542 27.1589C6.16676 28.1867 6.97438 29.8754 8.03897 31.0501Z" fill="url(#paint1_linear_52_1265)"/>
<mask id="mask0_52_1265" style="mask-type:luminance" maskUnits="userSpaceOnUse" x="0" y="0" width="67" height="38">
<path d="M8.03897 31.0501C9.17699 32.2983 11.453 33.5831 15.8582 32.6287C12.7012 35.0515 8.55291 37.3643 5.249 37.1073C-2.57026 36.4465 -1.76264 27.1221 8.40608 23.2309C22.1357 18.018 47.6492 31.4172 53.1925 18.6788C55.909 12.4381 51.0266 3.59094 43.5377 2.12253C67.1423 -8.92722 74.154 26.3145 55.3584 35.4921C40.3439 42.8341 18.7583 20.551 7.85542 27.1589C6.16676 28.1867 6.97438 29.8754 8.03897 31.0501Z" fill="white"/>
</mask>
<g mask="url(#mask0_52_1265)">
<path d="M78.8161 34.0603L2.67927 52.5989L-7.56287 9.83159L68.574 -8.70703L78.8161 34.0603Z" fill="url(#paint2_linear_52_1265)"/>
</g>
<path fill-rule="evenodd" clip-rule="evenodd" d="M1.02736 35.3084C-2.90062 30.4627 7.81874 26.9752 9.14031 26.5347C8.66308 26.7182 8.22256 26.9385 7.78203 27.1955C6.90099 27.7094 6.68073 28.4069 6.82757 29.1044C6.97441 29.8019 7.41493 30.4994 7.96558 31.0867C9.1036 32.3349 11.3796 33.6197 15.7848 32.6653C12.6278 35.0881 8.47952 37.4009 5.17561 37.1439C3.30339 36.9237 1.90841 36.2629 1.02736 35.3084Z" fill="#995D11"/>
<path fill-rule="evenodd" clip-rule="evenodd" d="M53.8165 16.2193C54.4406 11.5204 51.6506 6.16076 47.172 3.55434C46.034 2.89355 44.8225 2.41632 43.501 2.15935C54.1469 -2.83323 61.4522 1.6087 64.4992 8.8406C64.903 24.6994 42.8769 24.3323 42.8769 24.3323C47.6492 24.112 51.3936 22.717 53.1557 18.6789C53.4861 17.8713 53.7064 17.0637 53.8165 16.2193Z" fill="#995D11"/>
<defs>
<linearGradient id="paint0_linear_52_1265" x1="6.78534" y1="17.8067" x2="54.0546" y2="17.3382" gradientUnits="userSpaceOnUse">
<stop stop-color="#FDC300"/>
<stop offset="0.1999" stop-color="#F9BE00"/>
<stop offset="0.407" stop-color="#EBB000"/>
<stop offset="0.6175" stop-color="#D69800"/>
<stop offset="0.8289" stop-color="#BC7B0E"/>
<stop offset="0.967" stop-color="#A96515"/>
</linearGradient>
<linearGradient id="paint1_linear_52_1265" x1="31.5067" y1="39.944" x2="36.0383" y2="-1.82564" gradientUnits="userSpaceOnUse">
<stop stop-color="#A96515"/>
<stop offset="0.5" stop-color="#C79016"/>
<stop offset="1" stop-color="#FDC300"/>
</linearGradient>
<linearGradient id="paint2_linear_52_1265" x1="38.7662" y1="48.208" x2="32.3891" y2="-4.31359" gradientUnits="userSpaceOnUse">
<stop stop-color="#A96515"/>
<stop offset="0.5" stop-color="#C79016"/>
<stop offset="1" stop-color="#FDC300"/>
</linearGradient>
</defs>
</svg>
